<svg width="42" height="19" viewBox="0 0 42 19" fill="none" xmlns="http://www.w3.org/2000/svg">
<path fill-rule="evenodd" clip-rule="evenodd" d="M7.87498 2.90522C7.38815 3.49172 6.60923 3.95431 5.8303 3.88822C5.73294 3.09522 6.11429 2.25264 6.56054 1.73223C7.04737 1.12921 7.89932 0.699668 8.589 0.666626C8.67013 1.49268 8.3537 2.30221 7.87498 2.90522ZM8.58082 4.04517C7.8946 4.00496 7.26845 4.25527 6.7627 4.45745C6.43723 4.58757 6.16162 4.69775 5.95195 4.69775C5.71664 4.69775 5.42965 4.58167 5.10743 4.45135C4.68522 4.28059 4.20251 4.08536 3.69631 4.09473C2.53603 4.11125 1.4569 4.78035 0.864591 5.84595C-0.352479 7.97716 0.548153 11.1327 1.72465 12.8674C2.30073 13.7265 2.99041 14.6682 3.89915 14.6351C4.29895 14.6198 4.58653 14.4955 4.88416 14.3669C5.22681 14.2189 5.58277 14.0651 6.13856 14.0651C6.67509 14.0651 7.01548 14.2149 7.34223 14.3587C7.65292 14.4954 7.95128 14.6267 8.3942 14.6186C9.3354 14.6021 9.92771 13.7595 10.5038 12.9004C11.1255 11.9784 11.3987 11.0785 11.4401 10.942L11.445 10.9262C11.444 10.9251 11.4363 10.9216 11.4228 10.9153C11.2149 10.8184 9.6265 10.0781 9.61127 8.09281C9.59597 6.42648 10.8712 5.58222 11.0719 5.44932C11.0841 5.44123 11.0924 5.43577 11.0961 5.43293C10.2847 4.21038 9.01896 4.07821 8.58082 4.04517ZM15.0963 14.5277V1.64962H19.8428C22.2932 1.64962 24.0052 3.36781 24.0052 5.879C24.0052 8.39019 22.2608 10.1249 19.7779 10.1249H17.0598V14.5277H15.0963ZM17.0596 3.33476H19.3234C21.0273 3.33476 22.0009 4.25994 22.0009 5.88726C22.0009 7.51458 21.0273 8.44801 19.3153 8.44801H17.0596V3.33476ZM30.4882 12.983C29.969 13.9908 28.8249 14.6269 27.5916 14.6269C25.766 14.6269 24.4921 13.52 24.4921 11.8513C24.4921 10.1992 25.7254 9.24928 28.0054 9.10885L30.4558 8.96017V8.24976C30.4558 7.20068 29.7823 6.63071 28.5815 6.63071C27.5916 6.63071 26.8695 7.15112 26.7234 7.94412H24.9546C25.0114 6.2755 26.553 5.06121 28.6383 5.06121C30.8858 5.06121 32.3463 6.25898 32.3463 8.11759V14.5277H30.5288V12.983H30.4882ZM28.1189 13.0987C27.0722 13.0987 26.4069 12.5865 26.4069 11.8018C26.4069 10.9923 27.0479 10.5214 28.273 10.4471L30.4557 10.3066V11.0336C30.4557 12.2396 29.4495 13.0987 28.1189 13.0987ZM38.3748 15.0316C37.5877 17.2868 36.6871 18.0302 34.7722 18.0302C34.6262 18.0302 34.1394 18.0137 34.0258 17.9806V16.4359C34.1475 16.4524 34.4477 16.469 34.6019 16.469C35.47 16.469 35.9569 16.0972 36.2571 15.1308L36.4356 14.5608L33.1089 5.18513H35.1617L37.4741 12.793H37.5147L39.8272 5.18513H41.8231L38.3748 15.0316Z" fill="black"/>
</svg>
