<svg width="24" height="24" viewBox="0 0 24 24" fill="none" xmlns="http://www.w3.org/2000/svg">
<path fill-rule="evenodd" clip-rule="evenodd" d="M0.891247 7.08943C0.297082 8.54201 0 10.1463 0 11.9024C0 13.6585 0.286472 15.2737 0.859417 16.748C1.43236 18.2222 2.25995 19.5014 3.34217 20.5854C4.4244 21.6694 5.69761 22.5149 7.1618 23.122C8.62599 23.7073 10.2387 24 12 24C13.7401 24 15.3316 23.7073 16.7745 23.122C18.2387 22.5149 19.5119 21.6694 20.5942 20.5854C21.6764 19.5014 22.5146 18.2222 23.1088 16.748C23.7029 15.2737 24 13.6585 24 11.9024C24 10.1463 23.6923 8.54201 23.0769 7.08943C23.0072 6.92236 22.9344 6.75793 22.8587 6.59615L12.0027 17.6629L4.5332 9.83085L5.94896 8.32554L11.8117 12.1603L21.6995 4.63408C21.3459 4.15236 20.9563 3.70251 20.5305 3.28455C19.4695 2.22222 18.2069 1.40921 16.7427 0.845527C15.2997 0.281842 13.7188 0 12 0C10.2812 0 8.68966 0.281842 7.22546 0.845527C5.76127 1.40921 4.48806 2.22222 3.40584 3.28455C2.32361 4.34688 1.48541 5.61518 0.891247 7.08943Z" fill="#C2E631"/>
</svg>
