<svg width="21" height="18" viewBox="0 0 21 18" fill="none" xmlns="http://www.w3.org/2000/svg">
<path fill-rule="evenodd" clip-rule="evenodd" d="M2.48951 2.39056L3.47595 8.06255H9.56242C10.0802 8.06255 10.4999 8.48228 10.4999 9.00005C10.4999 9.51781 10.0802 9.93755 9.56242 9.93755H3.47595L2.48951 15.6095L17.9117 9.00005L2.48951 2.39056ZM1.73584 9.00005L0.579502 2.35109C0.486021 1.81358 0.659948 1.26419 1.04573 0.878402C1.53047 0.393677 2.26148 0.25289 2.89157 0.522927L19.6445 7.70275C20.1634 7.92516 20.4999 8.43544 20.4999 9.00005C20.4999 9.56465 20.1634 10.0749 19.6445 10.2974L2.89157 17.4771C2.26148 17.7473 1.53047 17.6064 1.04573 17.1218C0.659948 16.7359 0.486021 16.1865 0.579502 15.649L1.73584 9.00005Z" fill="#8E8E93"/>
</svg>
