<svg width="14" height="14" viewBox="0 0 14 14" fill="none" xmlns="http://www.w3.org/2000/svg">
<path d="M6.99967 0.333252C3.32367 0.333252 0.333008 3.32392 0.333008 6.99992C0.333008 10.6759 3.32367 13.6666 6.99967 13.6666C10.6757 13.6666 13.6663 10.6759 13.6663 6.99992C13.6663 3.32392 10.6757 0.333252 6.99967 0.333252ZM6.99967 12.3333C4.05901 12.3333 1.66634 9.94059 1.66634 6.99992C1.66634 4.05925 4.05901 1.66659 6.99967 1.66659C9.94034 1.66659 12.333 4.05925 12.333 6.99992C12.333 9.94059 9.94034 12.3333 6.99967 12.3333Z" fill="#3A3F43"/>
<path d="M7.66634 3.66659H6.33301V7.66659H10.333V6.33325H7.66634V3.66659Z" fill="#3A3F43"/>
</svg>
