<svg width="149" height="21" viewBox="0 0 149 21" fill="none" xmlns="http://www.w3.org/2000/svg">
<g clip-path="url(#clip0_143_418)">
<path d="M32.5992 17.5851C29.6521 17.6031 26.9853 15.8406 25.8452 13.1219C24.7052 10.4033 25.3165 7.26525 27.3944 5.17417C29.4719 3.0831 32.6052 2.4523 35.3296 3.57639C38.054 4.70047 39.8318 7.35759 39.8318 10.3057C39.8386 14.3116 36.6035 17.5675 32.5992 17.5851ZM32.5992 0.300065C28.5541 0.278878 24.8954 2.70054 23.333 6.43298C21.7701 10.1658 22.6121 14.4727 25.4648 17.3417C28.3179 20.2106 32.6187 21.0753 36.3582 19.5315C40.0976 17.9876 42.5371 14.3404 42.5371 10.2937C42.5371 4.79441 38.096 0.328846 32.5992 0.300065Z" fill="#6C757D"/>
<path d="M69.5018 0.87577C69.4099 0.876569 69.3251 0.924939 69.278 1.00369L59.0363 14.9349L48.7947 1.00369C48.7467 0.92374 48.66 0.87497 48.5669 0.87577C48.4182 0.87577 48.2972 0.994894 48.2952 1.1436V19.7038H51.0044V8.74278L58.8765 19.376C58.916 19.4236 58.9744 19.4512 59.0363 19.4512C59.0983 19.4512 59.1566 19.4236 59.1962 19.376L67.0682 8.74278V19.7038H69.7775V1.1436C69.7763 1.07165 69.7467 1.00289 69.6952 0.952521C69.6432 0.902153 69.5737 0.874571 69.5018 0.87577Z" fill="#6C757D"/>
<path d="M86.3407 10.2297H80.0271V3.59395H86.3407C88.17 3.59395 89.6533 5.07781 89.6533 6.90785C89.6533 8.73789 88.17 10.2217 86.3407 10.2217V10.2297ZM86.3407 0.867676H77.3098V19.6957H80.0191V12.956H86.3327C89.6673 12.956 92.3705 10.2517 92.3705 6.91584C92.3705 3.57996 89.6673 0.875671 86.3327 0.875671" fill="#6C757D"/>
<path d="M10.2297 17.5851C6.81556 17.6043 3.84697 15.2462 3.09213 11.9155C2.3373 8.58441 3.99882 5.17617 7.08769 3.72069C10.1762 2.26481 13.8612 3.15345 15.9479 5.85654L17.894 3.93375C15.2083 0.687811 10.776 -0.524621 6.81317 0.903274C2.84998 2.33117 0.208252 6.09199 0.208252 10.3057C0.208252 14.5194 2.84998 18.2803 6.81317 19.7082C10.776 21.1361 15.2083 19.9236 17.894 16.6777L15.9479 14.7549C14.5873 16.5386 12.4726 17.5851 10.2297 17.5851Z" fill="#6C757D"/>
<path d="M124.49 8.57074L122.416 8.09903C120.186 7.61934 120.018 6.1003 120.018 5.6246C120.018 4.08558 121.245 3.20214 123.383 3.20214C125.581 3.20214 127.187 4.69319 127.679 5.20087L129.585 3.32606C127.795 1.44725 125.769 0.527832 123.383 0.527832C119.751 0.527832 117.309 2.57054 117.309 5.61261C117.309 6.58 117.309 9.52213 122.192 10.7254L124.462 11.261C126.568 11.8407 127.591 12.86 127.591 14.3711C127.591 16.1419 125.885 17.3772 123.447 17.3772C120.838 17.3772 119.231 15.5823 118.752 14.9787L116.87 16.8335C118.152 18.2966 120.342 20.0315 123.475 20.0315C127.379 20.0315 130.324 17.593 130.324 14.3631C130.324 11.4689 128.326 9.46217 124.51 8.56274" fill="#6C757D"/>
<path d="M142.723 8.57073L140.65 8.09903C138.42 7.61933 138.252 6.1003 138.252 5.6246C138.252 4.08558 139.479 3.20214 141.617 3.20214C143.814 3.20214 145.421 4.69319 145.908 5.20087L147.818 3.32606C146.028 1.44725 143.998 0.527832 141.617 0.527832C137.984 0.527832 135.543 2.57054 135.543 5.61261C135.543 6.57999 135.543 9.52213 140.426 10.7254L142.707 11.249C144.809 11.8287 145.832 12.848 145.832 14.3591C145.832 16.1299 144.13 17.3652 141.692 17.3652C139.083 17.3652 137.473 15.5703 136.997 14.9667L135.087 16.8415C136.37 18.3046 138.56 20.0395 141.692 20.0395C145.597 20.0395 148.542 17.601 148.542 14.3711C148.542 11.4769 146.544 9.47016 142.727 8.57073" fill="#6C757D"/>
<path d="M100.275 12.1526L103.375 6.23638L106.48 12.1526H100.275ZM103.375 0.707886C103.269 0.708685 103.172 0.771046 103.128 0.867784L93.2537 19.7038H96.3186L98.844 14.8789H107.903L110.432 19.7038H113.493L103.623 0.867784C103.578 0.771845 103.482 0.709884 103.375 0.707886Z" fill="#6C757D"/>
<path d="M28.3276 12.6602L30.2417 14.587L36.867 7.92323L34.9489 5.99646L28.3276 12.6602Z" fill="#6C757D"/>
</g>
<defs>
<clipPath id="clip0_143_418">
<rect width="148.333" height="20" fill="white" transform="translate(0.208252 0.299927)"/>
</clipPath>
</defs>
</svg>
