<svg width="20" height="20" viewBox="0 0 20 20" fill="none" xmlns="http://www.w3.org/2000/svg">
<path fill-rule="evenodd" clip-rule="evenodd" d="M9.9915 1.66663C5.3915 1.66663 1.6665 5.39996 1.6665 9.99996C1.6665 14.6 5.3915 18.3333 9.9915 18.3333C14.5998 18.3333 18.3332 14.6 18.3332 9.99996C18.3332 5.39996 14.5998 1.66663 9.9915 1.66663ZM10.8332 10.8333V5.83329H9.1665V10.8333H10.8332ZM10.8332 14.1666V12.5H9.1665V14.1666H10.8332ZM3.33317 9.99996C3.33317 13.6833 6.3165 16.6666 9.99984 16.6666C13.6832 16.6666 16.6665 13.6833 16.6665 9.99996C16.6665 6.31663 13.6832 3.33329 9.99984 3.33329C6.3165 3.33329 3.33317 6.31663 3.33317 9.99996Z" fill="#A0A8B1"/>
</svg>
