<svg width="17" height="16" viewBox="0 0 17 16" fill="none" xmlns="http://www.w3.org/2000/svg">
<g clip-path="url(#clip0_232_11918)">
<path d="M2.00782 5.67858C3.81057 4.17458 5.88596 3.33333 8.08075 3.33333C10.2755 3.33333 12.3509 4.17458 14.1537 5.67858C14.4364 5.91444 14.8568 5.87646 15.0927 5.59374C15.3285 5.31102 15.2905 4.89063 15.0078 4.65476C13.0032 2.98237 10.6337 2 8.08075 2C5.52778 2 3.15825 2.98237 1.15367 4.65476C0.87095 4.89063 0.832969 5.31102 1.06884 5.59374C1.3047 5.87646 1.7251 5.91444 2.00782 5.67858Z" fill="#424551"/>
<path fill-rule="evenodd" clip-rule="evenodd" d="M2.98125 6.45935C4.18027 5.44709 5.89036 4.5 7.83073 4.5C9.7711 4.5 11.4812 5.44709 12.6802 6.45935C13.2846 6.96963 13.7802 7.51363 14.1304 7.99952C14.3052 8.24199 14.4509 8.47992 14.5558 8.70052C14.6522 8.90315 14.7474 9.15887 14.7474 9.41667C14.7474 9.67447 14.6522 9.93019 14.5558 10.1328C14.4509 10.3534 14.3052 10.5913 14.1304 10.8338C13.7802 11.3197 13.2846 11.8637 12.6802 12.374C11.4812 13.3862 9.7711 14.3333 7.83073 14.3333C5.89036 14.3333 4.18027 13.3862 2.98125 12.374C2.37683 11.8637 1.88126 11.3197 1.53106 10.8338C1.3563 10.5913 1.21055 10.3534 1.10565 10.1328C1.00929 9.93019 0.914063 9.67447 0.914063 9.41667C0.914063 9.15887 1.00929 8.90315 1.10565 8.70052C1.21055 8.47992 1.3563 8.24199 1.53106 7.99952C1.88126 7.51363 2.37683 6.96963 2.98125 6.45935ZM2.25212 9.41667C2.25887 9.43924 2.27443 9.4859 2.30977 9.56021C2.37137 9.68976 2.47121 9.85786 2.61272 10.0542C2.89504 10.4459 3.31477 10.9106 3.84137 11.3552C4.90441 12.2526 6.31932 13 7.83073 13C9.34214 13 10.757 12.2526 11.8201 11.3552C12.3467 10.9106 12.7664 10.4459 13.0487 10.0542C13.1903 9.85786 13.2901 9.68976 13.3517 9.56021C13.387 9.4859 13.4026 9.43924 13.4093 9.41666C13.4026 9.39409 13.387 9.34743 13.3517 9.27312C13.2901 9.14357 13.1903 8.97547 13.0487 8.77913C12.7664 8.38742 12.3467 7.92274 11.8201 7.47816C11.5965 7.28939 11.3573 7.10726 11.105 6.93733C11.1976 7.24756 11.2474 7.5763 11.2474 7.91667C11.2474 9.80364 9.7177 11.3333 7.83073 11.3333C5.94376 11.3333 4.41406 9.80364 4.41406 7.91667C4.41406 7.5763 4.46383 7.24756 4.55649 6.93733C4.30413 7.10726 4.06497 7.28939 3.84137 7.47816C3.31477 7.92274 2.89504 8.38742 2.61272 8.77913C2.47121 8.97547 2.37137 9.14357 2.30977 9.27312C2.27443 9.34743 2.25887 9.39409 2.25212 9.41667ZM5.7474 7.91667C5.7474 6.76607 6.68014 5.83333 7.83073 5.83333C8.98132 5.83333 9.91406 6.76607 9.91406 7.91667C9.91406 9.06726 8.98132 10 7.83073 10C6.68014 10 5.7474 9.06726 5.7474 7.91667Z" fill="#424551"/>
</g>
<defs>
<clipPath id="clip0_232_11918">
<rect width="16" height="16" fill="white" transform="translate(0.24707)"/>
</clipPath>
</defs>
</svg>
