<svg width="19" height="19" viewBox="0 0 19 19" fill="none" xmlns="http://www.w3.org/2000/svg">
<circle cx="9.5" cy="9.5" r="9.5" fill="#F3F3F3"/>
<path d="M12.5262 6.47863C12.3389 6.2913 12.0363 6.2913 11.8489 6.47863L9.50004 8.82271L7.15116 6.47383C6.96383 6.28649 6.66121 6.28649 6.47387 6.47383C6.28654 6.66116 6.28654 6.96378 6.47387 7.15111L8.82276 9.5L6.47387 11.8489C6.28654 12.0362 6.28654 12.3388 6.47387 12.5262C6.66121 12.7135 6.96383 12.7135 7.15116 12.5262L9.50004 10.1773L11.8489 12.5262C12.0363 12.7135 12.3389 12.7135 12.5262 12.5262C12.7135 12.3388 12.7135 12.0362 12.5262 11.8489L10.1773 9.5L12.5262 7.15111C12.7087 6.96858 12.7087 6.66116 12.5262 6.47863Z" fill="black"/>
</svg>
