<svg width="111" height="29" viewBox="0 0 111 29" fill="none" xmlns="http://www.w3.org/2000/svg">
<path d="M0 27.9816V0.463623H9.25343C11.3841 0.463623 13.3041 0.79122 15.0136 1.44641C16.7231 2.07539 18.1848 2.99266 19.3988 4.19821C20.6375 5.37755 21.5789 6.81897 22.2231 8.52247C22.8672 10.1998 23.1893 12.0998 23.1893 14.2226C23.1893 16.3454 22.8672 18.2586 22.2231 19.9621C21.5789 21.6394 20.6375 23.0808 19.3988 24.2863C18.1848 25.4657 16.7231 26.383 15.0136 27.0381C13.3041 27.6671 11.3841 27.9816 9.25343 27.9816H0ZM6.50341 22.0456H9.06762C10.0586 22.0456 11.0124 21.9146 11.9291 21.6525C12.8458 21.3904 13.651 20.958 14.3447 20.3552C15.0631 19.7524 15.633 18.9531 16.0541 17.9572C16.4753 16.9351 16.6859 15.6902 16.6859 14.2226C16.6859 12.755 16.4753 11.5232 16.0541 10.5273C15.633 9.50525 15.0631 8.69282 14.3447 8.09004C13.651 7.48727 12.8458 7.05484 11.9291 6.79276C11.0124 6.53069 10.0586 6.39965 9.06762 6.39965H6.50341V22.0456Z" fill="#3A3F43"/>
<path fill-rule="evenodd" clip-rule="evenodd" d="M30.4064 8.59224C29.7175 10.2577 29.373 12.0972 29.373 14.1108C29.373 16.1243 29.7052 17.9762 30.3695 19.6666C31.0338 21.3569 31.9934 22.8235 33.2482 24.0665C34.503 25.3094 35.9792 26.2788 37.6769 26.9749C39.3746 27.646 41.2445 27.9816 43.2866 27.9816C45.3042 27.9816 47.1495 27.646 48.8225 26.9749C50.5202 26.2788 51.9965 25.3094 53.2513 24.0665C54.5061 22.8235 55.4779 21.3569 56.1669 19.6666C56.8558 17.9762 57.2002 16.1243 57.2002 14.1108C57.2002 12.0972 56.8435 10.2577 56.13 8.59224C56.0491 8.40068 55.9648 8.21215 55.8769 8.02665L43.2898 20.7156L34.6292 11.7355L36.2707 10.0095L43.0683 14.4064L54.5328 5.77698C54.1229 5.22464 53.6712 4.70886 53.1775 4.22964C51.9473 3.01158 50.4833 2.0794 48.7856 1.43309C47.1126 0.786779 45.2796 0.463623 43.2866 0.463623C41.2937 0.463623 39.4484 0.786779 37.7507 1.43309C36.053 2.0794 34.5768 3.01158 33.322 4.22964C32.0672 5.44768 31.0953 6.90189 30.4064 8.59224Z" fill="#C2E631"/>
<path d="M87.5002 1.29298V28.4456L69.4312 12.6712V27.1526H63.3833V0L81.3776 15.7744V1.29298H87.5002Z" fill="#3A3F43"/>
<path d="M93.6853 27.9816V0.463623H111V5.92791H99.7305V10.8025H110.254V16.2275H99.7305V22.5173H111V27.9816H93.6853Z" fill="#3A3F43"/>
</svg>
