<svg width="20" height="20" viewBox="0 0 20 20" fill="none" xmlns="http://www.w3.org/2000/svg">
<path d="M7.91663 9.99992C9.75496 9.99992 11.25 8.50492 11.25 6.66658C11.25 4.82825 9.75496 3.33325 7.91663 3.33325C6.07829 3.33325 4.58329 4.82825 4.58329 6.66658C4.58329 8.50492 6.07829 9.99992 7.91663 9.99992ZM9.16663 10.8333H6.66663C3.90913 10.8333 1.66663 13.0758 1.66663 15.8333V16.6666H14.1666V15.8333C14.1666 13.0758 11.9241 10.8333 9.16663 10.8333Z" fill="white"/>
<path d="M13.8366 9.20656C14.3442 8.34163 14.5634 7.33765 14.4625 6.33989C14.3133 4.85323 13.4833 3.53906 12.1266 2.63989L11.2058 4.02823C12.1383 4.64656 12.7058 5.52739 12.8041 6.50656C12.8495 6.96164 12.7928 7.42111 12.6383 7.85154C12.4838 8.28198 12.2353 8.67256 11.9108 8.99489L10.9175 9.98822L12.2658 10.3841C15.7925 11.4174 15.8333 14.9641 15.8333 14.9999H17.5C17.5 13.5091 16.7033 10.5957 13.8366 9.20656Z" fill="white"/>
</svg>
