<svg width="140" height="27" viewBox="0 0 140 27" fill="none" xmlns="http://www.w3.org/2000/svg">
<g clip-path="url(#clip0_143_429)">
<path fill-rule="evenodd" clip-rule="evenodd" d="M16.5809 5.18213L10.3409 12.0448L0.541748 7.09355V10.0643L1.85909 10.7552V21.0493L12.236 26.2999L22.6361 21.0723V11.1467L23.9534 11.7915V8.88983L16.5809 5.18213ZM20.7178 19.1609L12.2591 23.3522L4.44754 19.4833V11.9527L10.9418 15.2229L17.2049 8.38319L20.6947 10.1564L20.7178 19.1609Z" fill="#6C757D"/>
<path fill-rule="evenodd" clip-rule="evenodd" d="M5.04834 5.27424V2.21135L6.78168 0.299927L9.53191 1.68168V4.35307L7.56746 6.54085L5.04834 5.27424Z" fill="#6C757D"/>
<path fill-rule="evenodd" clip-rule="evenodd" d="M15.7024 21.8322V16.95L18.2908 15.6604V20.5426L15.7024 21.8322Z" fill="#6C757D"/>
<path fill-rule="evenodd" clip-rule="evenodd" d="M97.2387 20.2203C97.2387 20.9802 96.6147 21.5789 95.8751 21.5789C95.1124 21.5789 94.5115 20.9572 94.5115 20.2203C94.5115 19.4603 95.1355 18.8616 95.8751 18.8616C96.6378 18.8616 97.2387 19.4603 97.2387 20.2203Z" fill="#6C757D"/>
<path d="M27.9514 6.03406H30.6323V12.0907H37.5888V6.03406H40.2697V21.2794H37.5888V14.4167H30.6323V21.2794H27.9514V6.03406Z" fill="#6C757D"/>
<path d="M41.5869 15.7525C41.5869 12.3902 43.6207 9.9491 47.1798 9.9491C50.7389 9.9491 52.7727 12.3902 52.7727 15.7525C52.7727 19.1378 50.7389 21.5789 47.1798 21.5789C43.6207 21.5789 41.5869 19.1378 41.5869 15.7525ZM50.3229 15.7525C50.3229 13.8641 49.3523 11.8605 47.1798 11.8605C44.9843 11.8605 44.0367 13.841 44.0367 15.7525C44.0367 17.6639 45.0074 19.6674 47.1798 19.6674C49.3523 19.6444 50.3229 17.6639 50.3229 15.7525Z" fill="#6C757D"/>
<path d="M54.1595 10.2485H56.4706V11.7914H56.54C57.2795 10.7091 58.1808 9.9491 59.9373 9.9491C61.2777 9.9491 62.5488 10.5248 63.0342 11.7914C63.8431 10.663 64.9062 9.9491 66.5008 9.9491C68.8351 9.9491 70.1986 10.9624 70.1986 13.6568V21.2795H67.7489V14.8313C67.7489 13.0811 67.6333 11.8605 65.7382 11.8605C64.0973 11.8605 63.3808 12.9429 63.3808 14.8083V21.2795H60.9311V14.1865C60.9311 12.6665 60.4688 11.8605 58.9897 11.8605C57.7186 11.8605 56.5631 12.8738 56.5631 14.7161V21.2564H54.1133V10.2485H54.1595Z" fill="#6C757D"/>
<path d="M74.0583 16.3973C74.0583 18.1245 75.0058 19.6674 77.0396 19.6674C78.4494 19.6674 79.3045 19.0456 79.7436 17.8251H82.0547C81.5232 20.2432 79.4663 21.5789 77.0396 21.5789C73.5729 21.5789 71.6316 19.1608 71.6316 15.7755C71.6316 12.6435 73.6885 9.9491 76.9934 9.9491C80.4832 9.9491 82.6325 13.0811 82.2165 16.3973H74.0583ZM79.7436 14.7852C79.6512 13.2423 78.6112 11.8605 76.9703 11.8605C75.2832 11.8605 74.1276 13.1502 74.0583 14.7852H79.7436Z" fill="#6C757D"/>
<path d="M85.2443 17.7331C85.383 19.1378 86.4461 19.6445 87.7404 19.6445C88.6648 19.6445 90.2595 19.4603 90.2133 18.1936C90.1439 16.904 88.3644 16.7658 86.5848 16.3513C84.7821 15.9598 83.0256 15.338 83.0256 13.0812C83.0256 10.6631 85.6372 9.92615 87.6479 9.92615C89.9128 9.92615 91.9697 10.8703 92.2702 13.3114H89.7279C89.5199 12.16 88.5493 11.8376 87.4861 11.8376C86.7697 11.8376 85.4754 11.9988 85.4754 12.966C85.4754 14.1635 87.2781 14.3247 89.0808 14.7393C90.8604 15.1538 92.6631 15.7756 92.6631 17.9634C92.6631 20.5887 90.0053 21.5559 87.7172 21.5559C84.9439 21.5559 82.8638 20.3123 82.8176 17.71H85.2443V17.7331Z" fill="#6C757D"/>
<path d="M106.992 13.7259C106.622 12.0908 105.628 11.0775 103.872 11.0775C101.283 11.0775 99.9892 13.4265 99.9892 15.7755C99.9892 18.1245 101.283 20.4735 103.872 20.4735C105.536 20.4735 106.923 19.1608 107.084 17.3415H108.425C108.055 19.9899 106.322 21.602 103.872 21.602C100.498 21.602 98.6487 18.9306 98.6487 15.7755C98.6487 12.6205 100.498 9.9491 103.872 9.9491C106.229 9.9491 108.055 11.2157 108.356 13.7259H106.992Z" fill="#6C757D"/>
<path d="M119.564 15.7755C119.564 18.9306 117.716 21.602 114.341 21.602C110.967 21.602 109.118 18.9306 109.118 15.7755C109.118 12.6205 110.967 9.9491 114.341 9.9491C117.716 9.9491 119.564 12.6205 119.564 15.7755ZM110.459 15.7755C110.459 18.1245 111.753 20.4735 114.341 20.4735C116.93 20.4735 118.224 18.1245 118.224 15.7755C118.224 13.4265 116.93 11.0775 114.341 11.0775C111.73 11.0775 110.459 13.4265 110.459 15.7755Z" fill="#6C757D"/>
<path d="M120.927 10.2715H122.175V12.1369H122.245C122.961 10.8242 124.117 9.9491 125.873 9.9491C127.329 9.9491 128.647 10.663 129.04 12.1138C129.71 10.663 131.096 9.9491 132.552 9.9491C134.979 9.9491 136.204 11.2157 136.204 13.818V21.2795H134.864V13.8641C134.864 12.0448 134.17 11.0775 132.252 11.0775C129.918 11.0775 129.248 12.989 129.248 15.0386V21.2795H127.907V13.818C127.93 12.3211 127.306 11.0775 125.596 11.0775C123.262 11.0775 122.314 12.8277 122.291 15.1307V21.2795H120.951V10.2715H120.927Z" fill="#6C757D"/>
<path d="M139.208 9.97217C139.208 10.7091 138.607 11.3079 137.845 11.3079C137.082 11.3079 136.481 10.7091 136.481 9.97217C136.481 9.23523 137.082 8.63647 137.868 8.63647C138.607 8.63647 139.208 9.23523 139.208 9.97217ZM136.828 9.97217C136.828 10.5709 137.267 11.0315 137.868 11.0315C138.446 11.0315 138.885 10.5709 138.885 9.97217C138.885 9.37341 138.446 8.91282 137.845 8.91282C137.267 8.91282 136.828 9.39644 136.828 9.97217ZM137.637 10.663H137.336V9.32735C137.452 9.30432 137.637 9.28129 137.845 9.28129C138.099 9.28129 138.215 9.32735 138.307 9.39644C138.399 9.44249 138.446 9.55764 138.446 9.67279C138.446 9.83399 138.33 9.94914 138.168 9.9952V10.0182C138.307 10.0643 138.353 10.1564 138.399 10.3406C138.446 10.5479 138.469 10.617 138.492 10.663H138.168C138.122 10.617 138.099 10.5018 138.053 10.3406C138.03 10.2025 137.937 10.1334 137.775 10.1334H137.637V10.663ZM137.66 9.92611H137.799C137.96 9.92611 138.099 9.88005 138.099 9.74187C138.099 9.62673 138.007 9.53461 137.822 9.53461C137.752 9.53461 137.683 9.53461 137.66 9.55764V9.92611Z" fill="#6C757D"/>
</g>
<defs>
<clipPath id="clip0_143_429">
<rect width="138.667" height="26" fill="white" transform="translate(0.541748 0.299927)"/>
</clipPath>
</defs>
</svg>
