<svg width="18" height="20" viewBox="0 0 18 20" fill="none" xmlns="http://www.w3.org/2000/svg">
<path fill-rule="evenodd" clip-rule="evenodd" d="M12 2V1C12 0.448 12.448 0 13 0C13.552 0 14 0.448 14 1V2C16.21 2 18 3.791 18 6V16C18 18.209 16.21 20 14 20C11.141 20 6.86 20 4 20C1.791 20 0 18.209 0 16V6C0 3.791 1.791 2 4 2V1C4 0.448 4.448 0 5 0C5.552 0 6 0.448 6 1V2H12ZM16 10H2V16C2 17.104 2.896 18 4 18H14C15.105 18 16 17.104 16 16V10ZM10.893 13.655L12.303 12.283C12.699 11.898 13.332 11.907 13.717 12.303C14.102 12.698 14.093 13.332 13.698 13.717L11.642 15.717C11.274 16.074 10.697 16.096 10.304 15.768L9.17799 14.828C8.75399 14.475 8.69699 13.844 9.05099 13.42C9.40399 12.996 10.035 12.939 10.459 13.293L10.893 13.655ZM14 4V5C14 5.552 13.552 6 13 6C12.448 6 12 5.552 12 5V4H6V5C6 5.552 5.552 6 5 6C4.448 6 4 5.552 4 5V4C2.896 4 2 4.895 2 6V8H16V6C16 4.895 15.105 4 14 4Z" fill="#C2E631"/>
</svg>
