<svg width="34" height="34" viewBox="0 0 34 34" fill="none" xmlns="http://www.w3.org/2000/svg">
<path d="M29.2116 11.9708C27.7241 5.42579 22.0149 2.47913 16.9999 2.47913C16.9999 2.47913 16.9999 2.47913 16.9857 2.47913C11.9849 2.47913 6.26156 5.41163 4.77406 11.9566C3.11656 19.2666 7.59322 25.4575 11.6449 29.3533C13.1466 30.7983 15.0732 31.5208 16.9999 31.5208C18.9266 31.5208 20.8532 30.7983 22.3407 29.3533C26.3924 25.4575 30.8691 19.2808 29.2116 11.9708ZM16.9999 19.0683C14.5349 19.0683 12.5374 17.0708 12.5374 14.6058C12.5374 12.1408 14.5349 10.1433 16.9999 10.1433C19.4649 10.1433 21.4624 12.1408 21.4624 14.6058C21.4624 17.0708 19.4649 19.0683 16.9999 19.0683Z" fill="url(#paint0_linear_346_15451)"/>
<defs>
<linearGradient id="paint0_linear_346_15451" x1="4.41992" y1="3.98128" x2="31.251" y2="27.6433" gradientUnits="userSpaceOnUse">
<stop stop-color="#C2E631"/>
<stop offset="1" stop-color="#768D17"/>
</linearGradient>
</defs>
</svg>
