<svg width="202" height="52" viewBox="0 0 202 52" fill="none" xmlns="http://www.w3.org/2000/svg">
<path d="M0 50.9217V0.843872H16.8396C20.717 0.843872 24.2111 1.44004 27.3221 2.63237C30.433 3.777 33.0931 5.44626 35.3023 7.64015C37.5566 9.78634 39.2698 12.4095 40.4421 15.5095C41.6143 18.5619 42.2004 22.0196 42.2004 25.8828C42.2004 29.7459 41.6143 33.2275 40.4421 36.3276C39.2698 39.3799 37.5566 42.0031 35.3023 44.197C33.0931 46.3431 30.433 48.0124 27.3221 49.2047C24.2111 50.3494 20.717 50.9217 16.8396 50.9217H0ZM11.835 40.1192H16.5014C18.3049 40.1192 20.0407 39.8807 21.7089 39.4038C23.377 38.9269 24.8423 38.1399 26.1047 37.043C27.4122 35.946 28.4492 34.4914 29.2157 32.6791C29.9821 30.819 30.3654 28.5536 30.3654 25.8828C30.3654 23.212 29.9821 20.9704 29.2157 19.158C28.4492 17.298 27.4122 15.8195 26.1047 14.7226C24.8423 13.6256 23.377 12.8387 21.7089 12.3618C20.0407 11.8848 18.3049 11.6464 16.5014 11.6464H11.835V40.1192Z" fill="url(#paint0_linear_74_573)"/>
<path fill-rule="evenodd" clip-rule="evenodd" d="M55.3347 15.6365C54.081 18.6674 53.4541 22.015 53.4541 25.6792C53.4541 29.3434 54.0586 32.7136 55.2675 35.7898C56.4764 38.8659 58.2226 41.5349 60.5062 43.7968C62.7897 46.0587 65.4762 47.8229 68.5657 49.0896C71.6551 50.311 75.058 50.9217 78.7743 50.9217C82.4459 50.9217 85.804 50.311 88.8487 49.0896C91.9382 47.8229 94.6247 46.0587 96.9082 43.7968C99.1917 41.5349 100.96 38.8659 102.214 35.7898C103.468 32.7136 104.095 29.3434 104.095 25.6792C104.095 22.015 103.445 18.6674 102.147 15.6365C102 15.2879 101.846 14.9449 101.686 14.6073L78.7802 37.6989L63.0194 21.3566L66.0067 18.2157L78.3772 26.2173L99.2405 10.5133C98.4945 9.50811 97.6723 8.56946 96.7739 7.69734C94.5351 5.48071 91.871 3.7843 88.7816 2.60813C85.7369 1.43196 82.4011 0.843872 78.7743 0.843872C75.1476 0.843872 71.7894 1.43196 68.7 2.60813C65.6105 3.7843 62.924 5.48071 60.6405 7.69734C58.357 9.91397 56.5883 12.5604 55.3347 15.6365Z" fill="url(#paint1_linear_74_573)"/>
<path d="M159.235 2.35299V51.7658L126.353 23.0593V49.4128H115.347V0L148.093 28.7065V2.35299H159.235Z" fill="url(#paint2_linear_74_573)"/>
<path d="M170.49 50.9217V0.843872H202V10.7879H181.491V19.6588H200.642V29.5313H181.491V40.9777H202V50.9217H170.49Z" fill="url(#paint3_linear_74_573)"/>
<defs>
<linearGradient id="paint0_linear_74_573" x1="21.1002" y1="0.843872" x2="21.1002" y2="50.9217" gradientUnits="userSpaceOnUse">
<stop stop-color="#FCFCFC" stop-opacity="0.78"/>
<stop offset="0.567708" stop-color="#FCFCFC" stop-opacity="0.46"/>
<stop offset="1" stop-color="#FCFCFC" stop-opacity="0"/>
</linearGradient>
<linearGradient id="paint1_linear_74_573" x1="78.7743" y1="0.843872" x2="78.7743" y2="50.9217" gradientUnits="userSpaceOnUse">
<stop stop-color="#FCFCFC" stop-opacity="0.78"/>
<stop offset="0.567708" stop-color="#FCFCFC" stop-opacity="0.46"/>
<stop offset="1" stop-color="#FCFCFC" stop-opacity="0"/>
</linearGradient>
<linearGradient id="paint2_linear_74_573" x1="137.291" y1="0" x2="137.291" y2="51.7658" gradientUnits="userSpaceOnUse">
<stop stop-color="#FCFCFC" stop-opacity="0.78"/>
<stop offset="0.567708" stop-color="#FCFCFC" stop-opacity="0.46"/>
<stop offset="1" stop-color="#FCFCFC" stop-opacity="0"/>
</linearGradient>
<linearGradient id="paint3_linear_74_573" x1="186.245" y1="0.843872" x2="186.245" y2="50.9217" gradientUnits="userSpaceOnUse">
<stop stop-color="#FCFCFC" stop-opacity="0.78"/>
<stop offset="0.567708" stop-color="#FCFCFC" stop-opacity="0.46"/>
<stop offset="1" stop-color="#FCFCFC" stop-opacity="0"/>
</linearGradient>
</defs>
</svg>
