<svg width="17" height="17" viewBox="0 0 17 17" fill="none" xmlns="http://www.w3.org/2000/svg">
<path fill-rule="evenodd" clip-rule="evenodd" d="M8.50002 1.05225C9.76249 1.05225 10.8397 2.04461 11.5668 3.35361C11.6803 3.55779 11.7873 3.77307 11.8874 3.99838C12.2049 3.83793 12.5069 3.65573 12.7908 3.45415C13.0346 3.28105 13.3726 3.33837 13.5457 3.58218C13.7188 3.82599 13.6615 4.16397 13.4177 4.33707C13.0579 4.59252 12.6739 4.82045 12.2695 5.01754C12.5477 5.90826 12.7251 6.90488 12.7707 7.95854H15.4062V9.04136H12.7707C12.7251 10.095 12.5477 11.0916 12.2695 11.9822C12.6739 12.1793 13.0579 12.4073 13.4177 12.6627C13.6615 12.8358 13.7188 13.1738 13.5457 13.4176C13.3726 13.6614 13.0346 13.7187 12.7908 13.5456C12.5069 13.3441 12.2049 13.1619 11.8874 13.0014C11.7873 13.2267 11.6803 13.442 11.5668 13.6462C10.8397 14.9552 9.76249 15.9476 8.50002 15.9476C7.23754 15.9476 6.16031 14.9552 5.43319 13.6462C5.31976 13.442 5.21268 13.2267 5.11265 13.0014C4.79506 13.1618 4.49306 13.344 4.20913 13.5456C3.96532 13.7187 3.62734 13.6614 3.45424 13.4176C3.28113 13.1738 3.33845 12.8358 3.58226 12.6627C3.94208 12.4072 4.32612 12.1793 4.73055 11.9822C4.45238 11.0915 4.27496 10.095 4.22931 9.04136H1.59375V7.95854H4.22931C4.27495 6.90489 4.45237 5.90829 4.73056 5.01758C4.32612 4.82047 3.94209 4.59254 3.58226 4.33707C3.33845 4.16397 3.28113 3.82599 3.45424 3.58218C3.62734 3.33837 3.96532 3.28105 4.20913 3.45415C4.49306 3.65574 4.79506 3.83795 5.11266 3.99841C5.21269 3.7731 5.31977 3.5578 5.43319 3.35361C6.16031 2.0446 7.23754 1.05225 8.50002 1.05225ZM6.11327 4.4133C6.19725 4.22592 6.28631 4.04767 6.37977 3.87942C6.86889 2.99888 7.43016 2.46668 7.95859 2.2492V4.77447C7.3142 4.72965 6.6952 4.60552 6.11327 4.4133ZM9.04141 2.24919C9.56985 2.46665 10.1311 2.99886 10.6203 3.87942C10.7137 4.04766 10.8028 4.2259 10.8868 4.41328C10.3048 4.6055 9.68581 4.72964 9.04141 4.77447V2.24919ZM11.2631 5.42923C11.4921 6.18927 11.6435 7.04493 11.6868 7.95854H9.04141V5.85958C9.81648 5.8123 10.5624 5.66425 11.2631 5.42923ZM11.6868 9.04136C11.6435 9.95493 11.4921 10.8105 11.2631 11.5706C10.5624 11.3355 9.81649 11.1875 9.04141 11.1402V9.04136H11.6868ZM10.8868 12.5865C10.8028 12.7739 10.7137 12.9521 10.6203 13.1204C10.1311 14.001 9.56985 14.5332 9.04141 14.7506V12.2253C9.68581 12.2701 10.3048 12.3943 10.8868 12.5865ZM7.95859 14.7506C7.43016 14.5331 6.86889 14.0009 6.37977 13.1204C6.28631 12.9521 6.19724 12.7739 6.11325 12.5865C6.69519 12.3943 7.31419 12.2701 7.95859 12.2253V14.7506ZM5.73689 11.5705C5.5079 10.8105 5.35657 9.95492 5.31323 9.04136H7.95859V11.1402C7.18352 11.1875 6.43764 11.3355 5.73689 11.5705ZM5.31323 7.95854C5.35656 7.04494 5.5079 6.18929 5.7369 5.42926C6.43764 5.66427 7.18353 5.81231 7.95859 5.85958V7.95854H5.31323Z" fill="#FDFDFD"/>
<path fill-rule="evenodd" clip-rule="evenodd" d="M15.9478 8.49991C15.9478 4.38685 12.6132 1.05225 8.50015 1.05225C4.38709 1.05225 1.05249 4.38685 1.05249 8.49991C1.05249 12.613 4.38709 15.9476 8.50015 15.9476C12.6132 15.9476 15.9478 12.613 15.9478 8.49991ZM8.50015 2.13507C12.0152 2.13507 14.865 4.98488 14.865 8.49991C14.865 12.0149 12.0152 14.8647 8.50015 14.8647C4.98512 14.8647 2.13531 12.0149 2.13531 8.49991C2.13531 4.98488 4.98512 2.13507 8.50015 2.13507Z" fill="#FDFDFD"/>
</svg>
