<svg width="11" height="15" viewBox="0 0 11 15" fill="none" xmlns="http://www.w3.org/2000/svg">
<path d="M5.5 0C2.45929 0 0 2.20227 0 4.92521C0 8.61911 5.5 14.072 5.5 14.072C5.5 14.072 11 8.61911 11 4.92521C11 2.20227 8.54071 0 5.5 0ZM1.57143 4.92521C1.57143 2.98327 3.33143 1.4072 5.5 1.4072C7.66857 1.4072 9.42857 2.98327 9.42857 4.92521C9.42857 6.95158 7.16571 9.9841 5.5 11.8768C3.86571 9.99817 1.57143 6.93047 1.57143 4.92521Z" fill="#C2E631"/>
<path d="M5.50042 6.68353C6.58526 6.68353 7.4647 5.896 7.4647 4.92453C7.4647 3.95306 6.58526 3.16553 5.50042 3.16553C4.41557 3.16553 3.53613 3.95306 3.53613 4.92453C3.53613 5.896 4.41557 6.68353 5.50042 6.68353Z" fill="#C2E631"/>
</svg>
