<svg width="38" height="24" viewBox="0 0 38 24" fill="none" xmlns="http://www.w3.org/2000/svg">
<path fill-rule="evenodd" clip-rule="evenodd" d="M19.3264 20.9682C17.3518 22.682 14.7905 23.7166 11.9916 23.7166C5.74634 23.7166 0.683594 18.5657 0.683594 12.2116C0.683594 5.85762 5.74634 0.706665 11.9916 0.706665C14.7905 0.706665 17.3518 1.74125 19.3264 3.45505C21.3011 1.74125 23.8624 0.706665 26.6613 0.706665C32.9066 0.706665 37.9693 5.85762 37.9693 12.2116C37.9693 18.5657 32.9066 23.7166 26.6613 23.7166C23.8624 23.7166 21.3011 22.682 19.3264 20.9682Z" fill="#ED0006"/>
<path fill-rule="evenodd" clip-rule="evenodd" d="M19.3262 20.9682C21.7575 18.858 23.2992 15.718 23.2992 12.2116C23.2992 8.70528 21.7575 5.56527 19.3262 3.45505C21.3008 1.74125 23.8622 0.706665 26.6611 0.706665C32.9063 0.706665 37.969 5.85762 37.969 12.2116C37.969 18.5657 32.9063 23.7166 26.6611 23.7166C23.8622 23.7166 21.3008 22.682 19.3262 20.9682Z" fill="#F9A000"/>
<path fill-rule="evenodd" clip-rule="evenodd" d="M19.3265 20.9682C21.7579 18.858 23.2996 15.718 23.2996 12.2116C23.2996 8.70529 21.7579 5.5653 19.3265 3.45508C16.8952 5.5653 15.3535 8.70529 15.3535 12.2116C15.3535 15.718 16.8952 18.858 19.3265 20.9682Z" fill="#FF5E00"/>
</svg>
