<svg width="38" height="38" viewBox="0 0 38 38" fill="none" xmlns="http://www.w3.org/2000/svg">
<circle cx="19" cy="19" r="19" fill="#C2E631"/>
<path fill-rule="evenodd" clip-rule="evenodd" d="M14.5805 9.66663C14.2557 9.66663 13.9327 9.71608 13.6211 9.81336L13.3986 9.88286C12.0435 10.306 11.0371 11.5135 10.7764 12.9931C10.6301 13.8234 10.6301 14.6765 10.7764 15.5068C10.7858 15.5606 10.7963 15.6141 10.8077 15.6671L10.8337 15.7993C11.9295 21.0742 16.0914 25.1844 21.3944 26.205C21.4271 26.2115 21.46 26.2177 21.4931 26.2236C22.3234 26.3698 23.1765 26.3698 24.0068 26.2236C25.4865 25.9628 26.694 24.9564 27.1171 23.6013L27.1866 23.3788C27.2838 23.0671 27.3333 22.7442 27.3333 22.4195C27.3333 20.8799 25.9948 19.6666 24.3824 19.6666H21.1175C19.5051 19.6666 18.1666 20.8799 18.1666 22.4195C18.1666 22.7316 18.2123 23.0422 18.3022 23.3425C16.3439 22.27 14.7299 20.656 13.6575 18.6977C13.958 18.7876 14.2684 18.8333 14.5805 18.8333C16.1201 18.8333 17.3333 17.4949 17.3333 15.8824V12.6175C17.3333 11.005 16.1201 9.66663 14.5805 9.66663ZM12.4304 15.2846C12.6027 16.1345 13.1711 16.8 13.8954 17.0262L14.1177 17.0956C14.269 17.1428 14.4245 17.1666 14.5805 17.1666C15.1611 17.1666 15.6666 16.6089 15.6666 15.8824V12.6175C15.6666 11.891 15.1611 11.3333 14.5805 11.3333C14.4245 11.3333 14.269 11.3571 14.1179 11.4043L13.8953 11.4738C13.1521 11.7058 12.5731 12.4005 12.4177 13.2823C12.3053 13.9202 12.3051 14.5763 12.4171 15.2142C12.4215 15.2377 12.4259 15.2612 12.4304 15.2846ZM21.6716 24.5603L21.7876 24.5831C22.425 24.6947 23.0804 24.6944 23.7176 24.5822C24.5995 24.4268 25.2941 23.8478 25.5262 23.1046L25.5956 22.8821C25.6428 22.731 25.6666 22.5754 25.6666 22.4195C25.6666 21.8389 25.1089 21.3333 24.3824 21.3333H21.1175C20.391 21.3333 19.8333 21.8389 19.8333 22.4195C19.8333 22.5754 19.8571 22.731 19.9042 22.882L19.9738 23.1046C20.196 23.8164 20.8426 24.3776 21.6716 24.5603Z" fill="#2E2D2D"/>
</svg>
