<svg width="24" height="24" viewBox="0 0 24 24" fill="none" xmlns="http://www.w3.org/2000/svg">
<path d="M18.9676 9.5624C19.4259 9.5624 19.7926 9.19574 19.7926 8.7374V4.4749C19.7926 4.01657 19.4259 3.6499 18.9676 3.6499C18.5092 3.6499 18.1426 4.01657 18.1426 4.4749V8.7374C18.1426 9.18657 18.5184 9.5624 18.9676 9.5624Z" fill="#1A1E25"/>
<path d="M12.9998 16.4375C12.5415 16.4375 12.1748 16.8042 12.1748 17.2625V21.525C12.1748 21.9833 12.5415 22.35 12.9998 22.35C13.4581 22.35 13.8248 21.9833 13.8248 21.525V17.2625C13.8248 16.8133 13.4581 16.4375 12.9998 16.4375Z" fill="#1A1E25"/>
<path d="M7.03252 9.5624C7.49085 9.5624 7.85752 9.19574 7.85752 8.7374V4.4749C7.85752 4.01657 7.49085 3.6499 7.03252 3.6499C6.57419 3.6499 6.20752 4.01657 6.20752 4.4749V8.7374C6.20752 9.18657 6.57419 9.5624 7.03252 9.5624Z" fill="#1A1E25"/>
<path d="M8.73744 11.3225H5.32744C4.86911 11.3225 4.50244 11.6892 4.50244 12.1475C4.50244 12.6058 4.86911 12.9725 5.32744 12.9725H6.20744V21.525C6.20744 21.9833 6.57411 22.35 7.03244 22.35C7.49077 22.35 7.85744 21.9833 7.85744 21.525V12.9725H8.73744C9.19577 12.9725 9.56244 12.6058 9.56244 12.1475C9.56244 11.6892 9.18661 11.3225 8.73744 11.3225Z" fill="#1A1E25"/>
<path d="M20.6725 11.3225H17.2625C16.8042 11.3225 16.4375 11.6892 16.4375 12.1475C16.4375 12.6058 16.8042 12.9725 17.2625 12.9725H18.1425V21.525C18.1425 21.9833 18.5092 22.35 18.9675 22.35C19.4258 22.35 19.7925 21.9833 19.7925 21.525V12.9725H20.6725C21.1308 12.9725 21.4975 12.6058 21.4975 12.1475C21.4975 11.6892 21.1308 11.3225 20.6725 11.3225Z" fill="#1A1E25"/>
<path d="M14.7052 13.0274H13.8252V4.4749C13.8252 4.01657 13.4585 3.6499 13.0002 3.6499C12.5419 3.6499 12.1752 4.01657 12.1752 4.4749V13.0274H11.2952C10.8369 13.0274 10.4702 13.3941 10.4702 13.8524C10.4702 14.3107 10.8369 14.6774 11.2952 14.6774H14.7052C15.1635 14.6774 15.5302 14.3107 15.5302 13.8524C15.5302 13.3941 15.1635 13.0274 14.7052 13.0274Z" fill="#1A1E25"/>
</svg>
