<svg width="20" height="23" viewBox="0 0 20 23" fill="none" xmlns="http://www.w3.org/2000/svg">
<path fill-rule="evenodd" clip-rule="evenodd" d="M5.93044 21.7471L6.30697 19.3319L5.46819 19.3122H1.46289L4.24643 1.48946C4.25511 1.43549 4.28314 1.38539 4.32408 1.34975C4.36522 1.31411 4.41766 1.29456 4.47251 1.29456H11.2261C13.4683 1.29456 15.0156 1.76562 15.8233 2.69552C16.202 3.13175 16.4432 3.58774 16.56 4.08935C16.6824 4.61581 16.6845 5.2447 16.5651 6.01188L16.5564 6.06768V6.55931L16.9351 6.77601C17.254 6.94687 17.5075 7.14239 17.7019 7.36621C18.0258 7.73931 18.2353 8.21342 18.3239 8.77531C18.4154 9.3533 18.3852 10.0413 18.2353 10.82C18.0625 11.7157 17.7832 12.4959 17.4059 13.1342C17.059 13.7224 16.6169 14.2103 16.0919 14.5883C15.5908 14.9476 14.9954 15.2203 14.3222 15.3948C13.6698 15.5663 12.926 15.6528 12.1102 15.6528H11.5846C11.2089 15.6528 10.8439 15.7895 10.5573 16.0345C10.2699 16.2846 10.0799 16.6263 10.0217 17L9.98192 17.2175L9.31659 21.4746L9.28654 21.6308C9.27847 21.6803 9.26476 21.7049 9.24459 21.7216C9.22664 21.7369 9.20083 21.7471 9.17562 21.7471H5.93044" fill="#28356A"/>
<path fill-rule="evenodd" clip-rule="evenodd" d="M17.2932 6.12451C17.2732 6.25465 17.2501 6.38764 17.2242 6.52429C16.3336 11.142 13.2865 12.7373 9.39494 12.7373H7.41346C6.9375 12.7373 6.53637 13.0861 6.46235 13.5603L5.16053 21.899C5.11233 22.2104 5.3499 22.4909 5.66089 22.4909H9.17531C9.59137 22.4909 9.94491 22.1856 10.0105 21.7711L10.0449 21.5909L10.7066 17.3505L10.7492 17.118C10.8139 16.7021 11.1683 16.3966 11.5843 16.3966H12.1099C15.5148 16.3966 18.1804 15.0007 18.9595 10.961C19.2848 9.27347 19.1164 7.86436 18.2552 6.87336C17.9946 6.5746 17.6714 6.32654 17.2932 6.12451" fill="#298FC2"/>
<path fill-rule="evenodd" clip-rule="evenodd" d="M16.3622 5.74943C16.2261 5.70931 16.0857 5.67306 15.9417 5.64027C15.7969 5.6083 15.6487 5.57999 15.496 5.55514C14.9618 5.46798 14.3763 5.42664 13.7493 5.42664H8.45586C8.32538 5.42664 8.20155 5.45637 8.09083 5.51014C7.8466 5.62866 7.66529 5.86206 7.62132 6.14779L6.49516 13.3503L6.46289 13.5603C6.53691 13.0862 6.93804 12.7373 7.414 12.7373H9.39547C13.287 12.7373 16.3342 11.1413 17.2248 6.52435C17.2514 6.3877 17.2738 6.25471 17.2937 6.12457C17.0685 6.0038 16.8244 5.90055 16.5617 5.81257C16.4967 5.79078 16.4298 5.7698 16.3622 5.74943" fill="#22284F"/>
<path fill-rule="evenodd" clip-rule="evenodd" d="M7.62131 6.14779C7.66528 5.86205 7.84659 5.62866 8.09082 5.51095C8.20234 5.45698 8.32537 5.42724 8.45585 5.42724H13.7493C14.3763 5.42724 14.9617 5.46879 15.496 5.55596C15.6487 5.5806 15.7969 5.60911 15.9417 5.64109C16.0857 5.67367 16.2261 5.71013 16.3622 5.75004C16.4298 5.77041 16.4967 5.79159 16.5623 5.81257C16.825 5.90055 17.0693 6.00461 17.2945 6.12457C17.5595 4.41812 17.2923 3.25625 16.3787 2.20416C15.3714 1.04575 13.5534 0.550049 11.2271 0.550049H4.47334C3.99819 0.550049 3.59282 0.898915 3.51941 1.37384L0.706418 19.3798C0.650957 19.736 0.923019 20.0574 1.27878 20.0574H5.44824L7.62131 6.14779" fill="#28356A"/>
</svg>
