<svg width="14" height="19" viewBox="0 0 14 19" fill="none" xmlns="http://www.w3.org/2000/svg">
<path d="M7.11313 0.800232C3.70496 0.800232 0.948486 3.55671 0.948486 6.96488C0.948486 11.5884 7.11313 18.4135 7.11313 18.4135C7.11313 18.4135 13.2778 11.5884 13.2778 6.96488C13.2778 3.55671 10.5213 0.800232 7.11313 0.800232ZM2.70981 6.96488C2.70981 4.53425 4.6825 2.56156 7.11313 2.56156C9.54376 2.56156 11.5165 4.53425 11.5165 6.96488C11.5165 9.50119 8.98014 13.2969 7.11313 15.6658C5.28135 13.3145 2.70981 9.47477 2.70981 6.96488Z" fill="#C2E631"/>
<path d="M7.11352 9.16583C8.32947 9.16583 9.31518 8.18011 9.31518 6.96417C9.31518 5.74823 8.32947 4.76251 7.11352 4.76251C5.89758 4.76251 4.91187 5.74823 4.91187 6.96417C4.91187 8.18011 5.89758 9.16583 7.11352 9.16583Z" fill="#C2E631"/>
</svg>
