<svg width="137" height="23" viewBox="0 0 137 23" fill="none" xmlns="http://www.w3.org/2000/svg">
<g clip-path="url(#clip0_143_458)">
<path d="M9.74754 11.4868C8.86966 11.4868 8.4295 10.8578 8.16638 10.3061C7.90325 9.75427 7.99179 9.2839 7.37704 9.2839C6.76228 9.2839 5.26962 10.935 5.0065 13.1389C5.0065 13.3757 4.91802 14.8693 4.91802 15.6568V18.0171C4.91802 18.8818 4.83188 19.9832 5.0065 20.6121C5.18112 21.4789 5.44545 21.5571 6.14751 21.8721C6.41064 21.9503 6.49914 22.0285 6.67376 22.0285V22.1078H0V22.0285C0.174619 22.0285 0.264286 21.9503 0.526214 21.8721C1.31678 21.5571 1.49261 21.4789 1.66723 20.6121C1.84304 19.9832 1.75574 18.8818 1.75574 18.0171V12.4307V9.83462C1.66723 9.20462 1.49141 9.04819 1.14098 8.81141C0.788151 8.57569 0.437729 8.57569 0.173409 8.49748V8.41819H4.65249C4.8283 8.41819 4.82831 8.49748 4.82831 8.57569V12.195C5.26605 10.6211 6.14511 9.59783 6.67135 9.1264C7.1988 8.65497 8.07788 8.10426 9.21888 8.10426C9.74512 8.10426 10.3599 8.2607 10.7988 8.65498C11.0632 8.89177 11.3263 9.36213 11.3263 9.99213C11.4148 10.7775 10.8897 11.4868 9.74754 11.4868ZM23.8868 14.161H14.4897C14.4897 17.9368 15.016 19.8257 16.0709 20.9271C16.8602 21.7918 17.6508 21.9493 18.7045 21.9493C21.6024 21.9493 23.0951 19.8257 23.711 17.6228H23.8868C23.2709 20.3753 21.252 22.2642 18.1782 22.2642C16.4213 22.2642 14.4897 21.871 13.1717 20.611C11.7664 19.1957 11.2401 17.5436 11.2401 15.2625C11.2401 10.935 13.9623 8.1032 17.8266 8.1032C22.2172 8.1032 24.15 10.7775 24.15 13.2953C23.973 13.5321 23.973 13.846 23.8868 14.161ZM19.6709 8.8907C19.0561 8.33891 18.5299 8.18247 17.652 8.18247C16.8614 8.18247 16.334 8.33891 15.8077 8.8907C15.0172 9.67713 14.5794 11.4085 14.4897 13.9253H19.6709C20.7246 13.9253 20.8131 13.9253 20.8131 12.5089C20.7234 10.6211 20.1983 9.36106 19.6709 8.8907ZM34.5996 22.2642C33.7217 22.2642 33.0196 22.2643 32.668 22.0275C32.2291 21.7907 31.8786 21.1618 31.9647 19.9821C31.6143 21.0836 30.386 22.2642 28.1016 22.2642C25.9942 22.2642 24.15 21.1628 24.15 18.8807C24.15 18.016 24.4131 17.3078 25.0279 16.8364C26.1689 15.8925 27.6615 15.8132 29.1541 15.2625C31.1742 14.5543 32.1406 13.6886 32.1406 12.7446V10.3061C32.1406 8.5757 31.6143 8.26068 30.1217 8.26068C29.3311 8.26068 28.8922 8.41712 28.5405 8.73212C28.1901 9.04712 28.0143 9.75426 28.0143 10.6993C28.0143 11.7214 27.3996 12.1146 26.4344 12.1146C25.6438 12.1146 25.029 11.7214 25.029 10.9339C25.029 10.3832 25.2037 9.98998 25.6438 9.59677C26.4344 8.73105 28.6302 8.18141 30.1229 8.18141C32.7577 8.18141 35.304 9.04712 35.304 11.3282C35.304 12.3514 35.2155 17.4653 35.2155 19.3532C35.2155 20.7686 35.2155 21.2411 35.5683 21.5561C35.6697 21.6532 35.7918 21.7311 35.9274 21.7852C36.063 21.8393 36.2093 21.8685 36.3577 21.8711C36.7094 21.8711 36.9725 21.7918 37.3241 21.6343V21.7136C36.8828 21.9493 35.7418 22.2642 34.5996 22.2642ZM29.6828 15.2625C28.7152 15.7339 28.2762 16.0489 27.9258 16.5214C27.5742 17.0721 27.3111 17.9368 27.3111 18.8036C27.3111 20.6121 28.1004 21.6353 29.5069 21.6353C29.7701 21.6353 30.1217 21.6353 30.3836 21.4789C31.1742 21.1639 31.8774 20.0625 31.8774 19.0403V13.6907C31.4385 14.3968 30.6479 14.79 29.6828 15.2625ZM36.8828 21.9493C37.0586 21.8711 37.3217 21.7918 37.4987 21.7136C38.1135 21.4768 38.3766 21.3203 38.5524 20.4536C38.727 19.8246 38.727 18.8025 38.727 17.8575V3.93212C38.727 3.38141 38.727 1.88784 38.6397 1.33712C38.5524 0.707124 38.3766 0.470337 38.0238 0.313908C37.6734 0.0771224 37.3217 0.0771156 37.0586 -0.00109863H41.5365C41.7111 -0.00109863 41.7111 -0.00108974 41.7111 0.235696V18.016C41.7111 18.8807 41.7111 19.9039 41.7996 20.611C41.9742 21.4778 42.2385 21.6343 43.0279 21.8711C43.2037 21.9493 43.2922 21.9493 43.4669 22.0275V22.1068H36.8804V21.9493H36.8828Z" fill="#6C757D"/>
<path d="M53.1295 20.2178C52.6032 21.241 51.0209 22.2642 49.4409 22.2642C48.0356 22.2642 47.1577 22.1067 46.3683 21.3974C45.7536 20.8467 45.4008 20.2167 45.4008 19.0381C45.4008 18.4092 45.4893 10.0703 45.5766 8.49636C45.0503 8.49636 43.9967 8.49637 43.468 8.41708V8.33886C45.6639 7.86743 47.0692 6.84315 48.563 2.51672H48.6492V8.25958H52.1631V8.41601H48.6492L48.4746 19.9028C48.4746 21.0835 48.8262 21.7906 50.3188 21.7906C51.5483 21.7906 52.5147 20.926 52.9536 20.1396L53.1295 20.2178ZM59.1897 22.2642C55.677 22.2642 51.8999 19.5107 51.8999 15.1832C51.8999 10.8578 55.677 8.10422 59.1897 8.10422C62.7036 8.10422 66.5667 10.7785 66.5667 15.1832C66.5667 19.5107 62.7897 22.2642 59.1897 22.2642ZM61.5614 9.12529C60.8581 8.33887 59.9802 8.18137 59.1897 8.18137C58.3991 8.18137 57.52 8.41708 56.9065 9.04708C55.8528 10.0703 55.238 12.6653 55.238 15.1049C55.238 17.6228 55.8528 20.0603 56.9065 21.1617C57.6097 21.9481 58.4876 22.1067 59.277 22.1067C60.0675 22.1067 60.8581 21.9492 61.6475 21.1617C62.615 20.1396 63.3171 17.6217 63.3171 15.1049C63.2298 12.6653 62.6151 10.2278 61.5614 9.12529ZM75.6983 11.4867C74.8216 11.4867 74.3815 10.8578 74.1195 10.306C73.8552 9.75423 73.9437 9.28386 73.3278 9.28386C72.713 9.28386 71.2204 10.9349 70.9573 13.1389C70.9573 13.3756 70.8712 14.8692 70.8712 15.6567V18.0171C70.8712 18.8817 70.7826 19.9831 70.9573 20.6121C71.1331 21.4789 71.3962 21.5571 72.0995 21.8721C72.3638 21.9503 72.4499 22.0285 72.6257 22.0285V22.1078H66.0392V22.0285C66.2139 22.0285 66.3036 21.9503 66.5655 21.8721C67.3561 21.5571 67.5319 21.4789 67.7065 20.6121C67.8823 19.9831 67.795 18.8817 67.795 18.0171V12.4306V9.83458C67.7065 9.20458 67.5307 9.04815 67.1803 8.81137C66.8274 8.57565 66.477 8.57565 66.2127 8.49744V8.41815H70.6918C70.8676 8.41815 70.8676 8.49744 70.8676 8.57565V12.1949C71.3053 10.621 72.1844 9.59779 72.7106 9.12636C73.2381 8.65493 74.1171 8.10422 75.2582 8.10422C75.7844 8.10422 76.3992 8.26066 76.8381 8.65494C77.1024 8.89173 77.3655 9.36209 77.3655 9.99209C77.3691 10.7774 76.8405 11.4867 75.6983 11.4867ZM77.3691 22.4999C76.3143 22.4999 75.4364 21.7917 75.4364 20.7696C75.4364 19.7474 76.3143 19.0392 77.3691 19.0392C78.4228 19.0392 79.2995 19.6681 79.2995 20.7696C79.2122 21.7917 78.4228 22.4999 77.3691 22.4999ZM87.4671 22.2642C85.5355 22.2642 83.7786 21.556 82.6376 20.5339C81.1438 19.1956 80.6175 17.3067 80.6175 15.0257C80.6175 10.6992 84.306 8.10316 87.5556 8.10316C89.7515 8.10316 91.4188 8.8103 92.0347 9.51851C92.5609 10.0703 92.8241 10.5407 92.8241 11.0142C92.8241 12.0364 92.0347 12.4296 91.3314 12.4296C90.1031 12.4296 89.663 11.7214 89.5745 10.6992C89.3114 8.89065 88.9597 8.26064 87.4671 8.26064C86.8524 8.26064 85.8872 8.49744 85.3585 9.04708C84.5692 9.9128 84.1302 11.9581 84.1302 14.4749C84.1302 17.6228 84.5691 19.6671 85.4482 20.8467C86.1503 21.7135 87.0282 21.9482 87.8187 21.9482C91.0683 21.9482 92.4736 19.4303 92.9999 17.5424H93.1745C92.2966 20.2178 90.4524 22.2642 87.4671 22.2642ZM100.29 22.2642C96.7757 22.2642 92.9999 19.5107 92.9999 15.1832C92.9999 10.8578 96.7757 8.10422 100.29 8.10422C103.802 8.10422 107.665 10.7785 107.665 15.1832C107.665 19.5107 103.801 22.2642 100.29 22.2642ZM102.66 9.12529C101.957 8.33887 101.079 8.18137 100.29 8.18137C99.4991 8.18137 98.6199 8.41708 98.0064 9.04708C96.9515 10.0703 96.3368 12.6653 96.3368 15.1049C96.3368 17.6228 96.9515 20.0603 98.0064 21.1617C98.7085 21.9481 99.5864 22.1067 100.377 22.1067C101.166 22.1067 101.957 21.9492 102.747 21.1617C103.714 20.1396 104.416 17.6217 104.416 15.1049C104.241 12.6653 103.627 10.2278 102.66 9.12529ZM125.229 21.9492C125.405 21.871 125.493 21.7917 125.755 21.7135C126.458 21.4767 126.722 21.3203 126.897 20.4535C127.072 19.8246 127.072 18.8024 127.072 17.8574V12.271C127.072 10.7764 126.897 10.0692 126.546 9.59673C126.107 9.04601 125.492 8.73101 124.614 8.73101C123.033 8.73101 121.189 9.98993 120.926 12.4285C120.926 12.8999 120.838 13.4506 120.838 14.0806V17.7782C120.838 18.6439 120.75 19.666 120.926 20.3742C121.1 21.2399 121.365 21.3964 122.067 21.6331C122.331 21.7124 122.418 21.7896 122.594 21.7896V21.8689H115.919V21.7896C116.095 21.7896 116.183 21.7124 116.445 21.6331C117.149 21.3964 117.412 21.2399 117.588 20.3742C117.762 19.7453 117.762 18.7221 117.762 17.7782V12.1928C117.762 10.6971 117.588 9.98886 117.147 9.51743C116.709 8.96672 116.094 8.65172 115.216 8.65172C113.459 8.65172 111.791 9.98887 111.527 12.4274C111.439 13.2139 111.439 14.1578 111.439 15.1028V17.6978C111.439 18.5646 111.352 19.6649 111.527 20.2949C111.702 21.1607 111.966 21.2389 112.756 21.5539L113.282 21.7114V21.7885H106.608V21.7114C106.783 21.7114 106.872 21.6321 107.134 21.5539C107.925 21.3181 108.101 21.1607 108.277 20.2949C108.451 19.6649 108.451 18.5646 108.451 17.6978V12.1917C108.451 11.6399 108.451 10.0682 108.364 9.59458C108.277 8.96565 108.1 8.80814 107.749 8.57243C107.398 8.33564 107.046 8.33565 106.782 8.25744V8.17923H111.261C111.435 8.17923 111.435 8.17922 111.435 8.33565L111.348 11.4835C111.787 10.0682 112.578 9.28065 113.368 8.72993C113.983 8.33672 115.124 7.86422 116.353 7.86422C117.933 7.86422 119.075 8.25744 119.69 8.96459C120.042 9.3578 120.657 10.2246 120.657 11.5617C121.096 10.0671 121.975 9.20137 122.765 8.72887C123.555 8.17816 124.784 7.86316 125.663 7.86316C127.595 7.86316 128.561 8.41386 129.087 9.04386C129.526 9.51529 129.965 10.381 129.965 12.0332V17.6967C129.965 18.5635 129.965 19.5856 130.141 20.2939C130.316 21.1596 130.58 21.3171 131.282 21.5528L131.808 21.7103V21.7874H125.222V21.9492H125.229ZM134.363 10.9349C134.011 10.9349 133.66 10.8578 133.309 10.7785C132.958 10.6221 132.693 10.4646 132.519 10.3071C132.254 10.0714 132.08 9.83565 131.992 9.59887C131.817 9.28494 131.817 9.04816 131.817 8.65494C131.817 8.33994 131.905 8.02493 131.992 7.711C132.167 7.396 132.343 7.16029 132.519 6.92458C132.782 6.68779 133.045 6.53137 133.397 6.45209C133.747 6.29566 134.099 6.29564 134.45 6.29564C134.802 6.29564 135.154 6.37494 135.504 6.45209C135.856 6.60959 136.12 6.76815 136.295 6.92458C136.559 7.16136 136.733 7.39601 136.821 7.63173C136.995 7.9478 136.995 8.1835 136.995 8.57671C136.995 8.89171 136.908 9.20565 136.821 9.52065C136.646 9.83565 136.469 10.0724 136.295 10.3071C136.12 10.5417 135.768 10.7003 135.417 10.7785C135.065 10.9349 134.715 10.9349 134.363 10.9349ZM134.363 10.6992C134.715 10.6992 134.978 10.621 135.329 10.5417C135.592 10.4646 135.856 10.306 136.031 10.0714C136.207 9.91386 136.383 9.67815 136.559 9.44136C136.646 9.20458 136.733 8.89066 136.733 8.65494C136.733 8.33994 136.646 8.10422 136.559 7.8685C136.465 7.61247 136.279 7.39117 136.031 7.23851C135.857 7.08208 135.592 6.92458 135.329 6.76815C135.065 6.68887 134.715 6.61065 134.451 6.61065C134.1 6.61065 133.837 6.68887 133.485 6.76815C133.199 6.85122 132.952 7.01657 132.782 7.23851C132.607 7.39601 132.431 7.63172 132.256 7.8685C132.168 8.10529 132.081 8.41923 132.081 8.65494C132.081 8.96887 132.168 9.20565 132.256 9.44136C132.343 9.67708 132.52 9.91279 132.782 10.0714C132.958 10.2278 133.221 10.3853 133.485 10.5417C133.747 10.621 134.099 10.6992 134.363 10.6992ZM133.309 7.23743H134.538C134.889 7.23743 135.241 7.31672 135.415 7.47422C135.59 7.63172 135.68 7.78921 135.68 8.02493C135.68 8.26171 135.591 8.41815 135.504 8.49744C135.417 8.65387 135.241 8.73315 135.065 8.81137L135.768 9.67814H135.065L134.45 8.89172H134.011V9.67814H133.397V7.23851H133.309V7.23743ZM134.539 8.41708C134.715 8.41708 134.803 8.41707 134.89 8.33886C134.978 8.26064 134.978 8.18244 134.978 8.10316C134.978 7.94673 134.978 7.86636 134.89 7.86636C134.803 7.78815 134.716 7.78815 134.539 7.78815H133.924V8.49636H134.539V8.41708Z" fill="#6C757D"/>
</g>
<defs>
<clipPath id="clip0_143_458">
<rect width="137" height="22.5" fill="white"/>
</clipPath>
</defs>
</svg>
