<svg width="92" height="25" viewBox="0 0 92 25" fill="none" xmlns="http://www.w3.org/2000/svg">
<g clip-path="url(#clip0_143_375)">
<path d="M46.1052 4.9828C44.4494 3.87132 42.22 3.45734 39.2504 3.45734L33.6343 3.45459V22.3755L39.368 22.3783C41.4095 22.3783 43.1642 22.1112 44.6314 21.512C46.1052 20.9005 47.2575 19.9297 48.0389 18.5304C48.8198 17.1322 49.2284 15.3101 49.2284 12.9922C49.2284 10.9888 48.9807 9.34996 48.4664 8.02991C47.9524 6.70767 47.167 5.70476 46.1052 4.9828ZM44.6014 16.2655C44.3244 17.2091 43.8817 17.9287 43.1937 18.43C42.4374 18.9726 41.296 19.2684 39.8858 19.2684H37.8758L37.8727 6.56825L39.5602 6.57012C41.2213 6.57611 42.4511 6.84612 43.2788 7.46542C43.8837 7.92417 44.3049 8.56476 44.5804 9.43854C44.8556 10.3141 44.9779 11.4176 44.9779 12.7848C44.978 14.1527 44.8779 15.3194 44.6014 16.2655Z" fill="#6C757D"/>
<path d="M46.1052 4.9828C44.4494 3.87132 42.22 3.45734 39.2504 3.45734L33.6343 3.45459V22.3755L39.368 22.3783C41.4095 22.3783 43.1642 22.1112 44.6314 21.512C46.1052 20.9005 47.2575 19.9297 48.0389 18.5304C48.8198 17.1322 49.2284 15.3101 49.2284 12.9922C49.2284 10.9888 48.9807 9.34996 48.4664 8.02991C47.9524 6.70767 47.167 5.70476 46.1052 4.9828ZM44.6014 16.2655C44.3244 17.2091 43.8817 17.9287 43.1937 18.43C42.4374 18.9726 41.296 19.2684 39.8858 19.2684H37.8758L37.8727 6.56825L39.5602 6.57012C41.2213 6.57611 42.4511 6.84612 43.2788 7.46542C43.8837 7.92417 44.3049 8.56476 44.5804 9.43854C44.8556 10.3141 44.9779 11.4176 44.9779 12.7848C44.978 14.1527 44.8779 15.3194 44.6014 16.2655Z" fill="#6C757D"/>
<path d="M51.8909 22.3755H56.1376V14.3118H61.0462V11.229H56.1376V6.56915L63.7207 6.57004V3.45459H51.8909V22.3755Z" fill="#6C757D"/>
<path d="M66.4082 22.3755H70.6605V3.45459H66.4082C66.4082 3.45459 66.3764 22.3755 66.4082 22.3755Z" fill="#6C757D"/>
<path d="M89.3467 3.45459H85.0779V14.3118L77.1765 3.45459H73.7722V22.3755H78.0434V11.232L85.8591 22.3755H89.3467V3.45459Z" fill="#6C757D"/>
<path d="M51.8909 22.3755H56.1376V14.3118H61.0462V11.229H56.1376V6.56915L63.7207 6.57004V3.45459H51.8909V22.3755Z" fill="#6C757D"/>
<path d="M89.3467 3.45459H85.0779V14.3118L77.1765 3.45459H73.7722V22.3755H78.0434V11.232L85.8591 22.3755H89.3467V3.45459Z" fill="#6C757D"/>
<path d="M17.5912 23.0971C17.2342 22.9514 16.876 22.6734 15.9152 21.0272L14.0006 17.7968L11.7438 13.9894L11.5524 13.6656C11.6629 13.634 11.7712 13.5976 11.8786 13.5612C14.4692 12.6572 15.9814 10.2439 15.9814 6.80043C15.9814 5.09879 15.3052 3.52718 14.0139 2.35117C13.8257 2.18843 13.6312 2.03322 13.4232 1.89145C11.6994 0.734303 9.37789 0.302599 6.28556 0.302599L0.437566 0.299927H0.434781V0.301222H0.348691C-0.0314741 0.296607 -0.0673582 0.519018 0.081748 0.720701C0.216373 0.899876 0.368582 1.13945 0.434781 1.7479V20.7449C0.368901 21.5186 0.214304 21.7651 0.081748 21.9431C-0.0689495 22.1442 -0.00235299 22.3745 0.377732 22.3697H4.70802V14.3119H6.67607L8.05869 16.7019L9.79736 19.7086L10.6425 21.1702C11.7164 23.0094 12.6562 24.0289 14.5269 24.2465C14.7821 24.2805 15.0543 24.2971 15.3477 24.2999C15.3706 24.2999 15.6146 24.2999 15.6372 24.2999C16.31 24.2999 16.9669 24.0251 17.3758 23.8483C17.4314 23.8273 17.4854 23.8054 17.5391 23.7811C18.0299 23.5597 17.894 23.2198 17.5912 23.0971ZM7.459 11.229H4.85314H4.70786V3.45602H7.459C8.82077 3.45602 9.8591 3.63568 10.6368 4.35456C10.9241 4.63146 11.1462 4.96601 11.3037 5.36986C11.4946 5.85946 11.5907 6.44856 11.5907 7.15838C11.5908 8.191 11.4976 11.229 7.459 11.229Z" fill="#6C757D"/>
<path d="M23.1597 14.3147H28.0792V11.2324H23.1597V6.5607H30.7394V3.4574H18.9045V22.3781H30.7417V19.241H23.1597V14.3147Z" fill="#6C757D"/>
<path d="M91.0474 20.4867C91.5508 20.4867 92 20.8557 92 21.4287C92 22.0041 91.5508 22.3756 91.0474 22.3756C90.5435 22.3756 90.0947 22.0041 90.0947 21.4287C90.0947 20.8557 90.5435 20.4867 91.0474 20.4867ZM91.0474 22.1733C91.4319 22.1733 91.7471 21.8605 91.7471 21.4287C91.7471 20.9998 91.4319 20.689 91.0474 20.689C90.6578 20.689 90.3478 20.9998 90.3478 21.4287C90.3478 21.8605 90.6579 22.1733 91.0474 22.1733ZM90.6776 20.8986H91.0697C91.3303 20.8986 91.4767 20.9816 91.4767 21.2118C91.4767 21.4057 91.3552 21.4818 91.2036 21.4942L91.4816 21.9564H91.2657L91.0125 21.5043H90.8837V21.9564H90.6775V20.8986H90.6776ZM90.8837 21.3401H91.0673C91.1864 21.3401 91.2707 21.3227 91.2707 21.1936C91.2707 21.0827 91.1516 21.0624 91.0573 21.0624H90.8839V21.3401H90.8837V21.3401Z" fill="#6C757D"/>
</g>
<defs>
<clipPath id="clip0_143_375">
<rect width="92" height="24" fill="white" transform="translate(0 0.299927)"/>
</clipPath>
</defs>
</svg>
