<svg width="20" height="18" viewBox="0 0 20 18" fill="none" xmlns="http://www.w3.org/2000/svg">
<path fill-rule="evenodd" clip-rule="evenodd" d="M1.74984 0.666687C2.21007 0.666687 2.58317 1.03978 2.58317 1.50002V5.19695C3.96486 2.50776 6.76649 0.666687 9.99982 0.666687C13.6295 0.666687 16.7152 2.98679 17.8588 6.22232C18.0121 6.65625 17.7847 7.13235 17.3508 7.28572C16.9168 7.43909 16.4407 7.21166 16.2874 6.77773C15.3718 4.18729 12.9012 2.33335 9.99982 2.33335C7.53314 2.33335 5.37788 3.67335 4.22478 5.66669H6.74981C7.21004 5.66669 7.58314 6.03978 7.58314 6.50002C7.58314 6.96026 7.21004 7.33335 6.74981 7.33335H1.74984C1.2896 7.33335 0.916504 6.96026 0.916504 6.50002V1.50002C0.916504 1.03978 1.2896 0.666687 1.74984 0.666687Z" fill="#3A3F43"/>
<path fill-rule="evenodd" clip-rule="evenodd" d="M2.64736 10.7143C3.08129 10.5609 3.5574 10.7884 3.71077 11.2223C4.62636 13.8128 7.0969 15.6667 9.99831 15.6667C12.465 15.6667 14.6202 14.3267 15.7733 12.3334H13.2483C12.7881 12.3334 12.415 11.9603 12.415 11.5C12.415 11.0398 12.7881 10.6667 13.2483 10.6667H18.2483C18.7085 10.6667 19.0816 11.0398 19.0816 11.5V16.5C19.0816 16.9603 18.7085 17.3334 18.2483 17.3334C17.788 17.3334 17.415 16.9603 17.415 16.5V12.8031C16.0333 15.4923 13.2316 17.3334 9.99831 17.3334C6.36862 17.3334 3.28296 15.0132 2.13937 11.7777C1.986 11.3438 2.21343 10.8677 2.64736 10.7143Z" fill="#3A3F43"/>
</svg>
