<svg width="12" height="11" viewBox="0 0 12 11" fill="none" xmlns="http://www.w3.org/2000/svg">
<path fill-rule="evenodd" clip-rule="evenodd" d="M3.7239 5.49999C3.7239 6.74444 4.7426 7.75696 6.00033 7.75696C7.25236 7.75696 8.27106 6.74444 8.27106 5.49999C8.27106 4.24989 7.25236 3.23737 6.00033 3.23737C4.7426 3.23737 3.7239 4.24989 3.7239 5.49999ZM9.34667 2.02686C10.3426 2.79616 11.1906 3.92181 11.7995 5.3303C11.845 5.43777 11.845 5.56222 11.7995 5.66403C10.5816 8.481 8.41333 10.1667 6.00033 10.1667H5.99463C3.58732 10.1667 1.41902 8.481 0.201139 5.66403C0.15561 5.56222 0.15561 5.43777 0.201139 5.3303C1.41902 2.51333 3.58732 0.833328 5.99463 0.833328H6.00033C7.20683 0.833328 8.35073 1.25191 9.34667 2.02686ZM6.00101 6.90723C6.78068 6.90723 7.41808 6.2737 7.41808 5.49875C7.41808 4.71814 6.78068 4.08461 6.00101 4.08461C5.93272 4.08461 5.86442 4.09027 5.80182 4.10158C5.77906 4.7238 5.26686 5.22158 4.63515 5.22158H4.6067C4.58963 5.31208 4.57824 5.40259 4.57824 5.49875C4.57824 6.2737 5.21564 6.90723 6.00101 6.90723Z" fill="#333333"/>
</svg>
