<svg width="86" height="22" viewBox="0 0 86 22" fill="none" xmlns="http://www.w3.org/2000/svg">
<g clip-path="url(#clip0_143_446)">
<path d="M66.6863 0.800415C67.9238 0.800415 68.9274 1.70865 68.9274 2.82904C68.9274 3.94942 67.9238 4.85766 66.6863 4.85766C65.4488 4.85766 64.4456 3.94942 64.4456 2.82904C64.4456 1.70865 65.4488 0.800415 66.6863 0.800415Z" fill="#6C757D"/>
<path d="M22.6931 21.3314C19.4313 21.3314 17.8158 19.6437 17.8158 16.8313V9.40623H14.8643V6.5097H17.8158V2.79716L21.6988 1.92505V6.5097H25.7681V9.40623H21.6988V16.522C21.6988 17.647 22.2581 18.1249 23.5007 18.1249C24.3083 18.1249 24.9605 18.0972 26.0168 17.9846V20.9376C24.9295 21.1908 23.8423 21.3314 22.6931 21.3314Z" fill="#6C757D"/>
<path d="M36.5645 9.63136C33.8311 9.63136 32.4018 11.4029 32.4018 13.7657V21.1344H28.4878V6.5097H31.7805L32.1222 8.70313C32.8682 7.01571 34.794 6.31262 36.6888 6.31262C37.0928 6.31262 37.4968 6.34068 37.9004 6.39713V9.77197C37.4654 9.68781 36.9995 9.63136 36.5645 9.63136Z" fill="#6C757D"/>
<path d="M50.5181 21.1343L50.2384 19.2221C49.4618 20.6563 47.6599 21.5 45.6098 21.5C42.1613 21.5 40.0178 19.3908 40.0178 16.2688V6.50964H43.9009V15.4812C43.9009 17.197 44.6469 18.2658 46.697 18.2658C47.598 18.2658 48.2193 17.9562 48.6852 17.5343C49.6171 16.7467 49.8658 15.4251 49.8658 14.244V6.50964H53.7488V21.1343H50.5181Z" fill="#6C757D"/>
<path d="M60.7029 21.303C58.062 21.303 56.2915 20.15 56.2915 17.3657V0.800049H60.2055V16.7751C60.2055 17.6188 60.4228 18.181 61.7587 18.181C62.1008 18.181 62.1937 18.1533 62.411 18.1533V21.1059C61.6348 21.2469 61.4795 21.303 60.7029 21.303Z" fill="#6C757D"/>
<path d="M64.7136 21.1343V6.50964H68.659V21.1343H64.7136Z" fill="#6C757D"/>
<path d="M80.8119 14.6375L76.7112 14.9187C75.531 15.0032 74.3814 15.6499 74.3814 16.8313C74.3814 17.9562 75.4686 18.6593 76.6802 18.6593C79.1034 18.6593 80.8119 17.4779 80.8119 15.3125V14.6375ZM84.074 21.3595C82.3965 21.3595 81.4642 20.4032 81.3402 19.3063C80.5946 20.4877 78.7308 21.5001 76.4319 21.5001C72.5795 21.5001 70.5913 19.3063 70.5913 16.9158C70.5913 14.1315 72.9835 12.5282 76.0589 12.3311L80.8119 12.0218V11.122C80.8119 9.74389 80.284 8.81567 78.0781 8.81567C76.2766 8.81567 75.2203 9.54681 75.127 10.8969H71.3683C71.5856 7.60621 74.4747 6.14392 78.0781 6.14392C80.8433 6.14392 83.2041 6.93152 84.136 9.12496C84.54 10.0532 84.602 11.0936 84.602 12.0783V17.5063C84.602 18.181 84.8503 18.4345 85.5029 18.4345C85.7516 18.4345 85.9999 18.3781 85.9999 18.3781V20.9657C85.3476 21.2188 85.006 21.3595 84.074 21.3595Z" fill="#6C757D"/>
<path d="M5.88711 9.14633C4.40439 9.14633 3.20287 8.05855 3.20287 6.71619C3.20287 5.37418 4.40439 4.2864 5.88711 4.2864C7.36944 4.2864 8.57134 5.37418 8.57134 6.71619C8.57134 8.05855 7.36944 9.14633 5.88711 9.14633ZM5.86813 0.800049C2.30193 0.817933 0 2.98472 0 6.26102C0 8.9731 1.95411 11.2924 3.06808 14.8184C3.70564 16.8376 4.04881 19.3094 4.22854 21.1343H7.50772C7.68744 19.3094 8.03062 16.8376 8.66817 14.8184C9.78215 11.2924 11.7363 8.9731 11.7363 6.26102C11.7363 2.98472 9.43432 0.818284 5.86813 0.800049Z" fill="#6C757D"/>
</g>
<defs>
<clipPath id="clip0_143_446">
<rect width="86" height="20.7" fill="white" transform="translate(0 0.800049)"/>
</clipPath>
</defs>
</svg>
