<svg width="42" height="14" viewBox="0 0 42 14" fill="none" xmlns="http://www.w3.org/2000/svg">
<path fill-rule="evenodd" clip-rule="evenodd" d="M10.6075 13.097H7.09378L4.45896 2.98725C4.3339 2.5222 4.06836 2.11107 3.67776 1.9173C2.70297 1.43034 1.62883 1.0428 0.457031 0.847343V0.458117H6.11729C6.89848 0.458117 7.48438 1.0428 7.58203 1.72184L8.94913 9.01437L12.4611 0.458117H15.8771L10.6075 13.097ZM17.8301 13.097H14.5117L17.2442 0.458117H20.5626L17.8301 13.097ZM24.8557 3.95948C24.9534 3.27876 25.5393 2.88953 26.2228 2.88953C27.297 2.7918 28.4671 2.98726 29.4436 3.47253L30.0295 0.751309C29.053 0.362082 27.9788 0.166626 27.004 0.166626C23.7833 0.166626 21.4397 1.9173 21.4397 4.34702C21.4397 6.19543 23.0998 7.16597 24.2716 7.75065C25.5393 8.33365 26.0275 8.72288 25.9299 9.30588C25.9299 10.1804 24.9534 10.5696 23.9786 10.5696C22.8068 10.5696 21.635 10.2781 20.5626 9.79115L19.9767 12.514C21.1485 12.9993 22.4162 13.1948 23.588 13.1948C27.1993 13.2908 29.4436 11.5418 29.4436 8.91665C29.4436 5.61075 24.8557 5.41698 24.8557 3.95948V3.95948ZM41.057 13.097L38.4222 0.458117H35.5921C35.0062 0.458117 34.4203 0.847343 34.225 1.43034L29.3459 13.097H32.762L33.4438 11.2503H37.641L38.0316 13.097H41.057ZM36.0803 3.86176L37.0551 8.62516H34.3226L36.0803 3.86176Z" fill="#172B85"/>
</svg>
