<svg width="111" height="24" viewBox="0 0 111 24" fill="none" xmlns="http://www.w3.org/2000/svg">
<g clip-path="url(#clip0_143_413)">
<path d="M68.5036 16.3761C68.5036 12.1205 71.9384 8.9691 76.139 8.9691C80.2998 8.9691 83.7346 12.1205 83.7346 16.3761C83.7346 20.6432 80.2998 23.7999 76.139 23.7999C71.9384 23.7946 68.5036 20.6432 68.5036 16.3761ZM42.5688 3.90841V4.77103C42.5688 5.09307 42.4998 5.19128 42.4369 5.32311L34.3057 19.1595C34.2889 19.1825 34.2995 19.217 34.3349 19.217H42.9946V23.3346H27.4006V22.5294C27.4006 22.1729 27.4467 22.0986 27.6423 21.742L35.6814 8.09498C35.6982 8.06667 35.6867 8.03747 35.6522 8.03747H27.6476V3.90841H42.5688ZM92.6705 23.3292H88.5053L83.9763 9.32565H88.4531L89.7482 13.5644C90.1794 14.9676 90.9044 17.6015 90.9044 17.6015C90.9159 17.636 90.9619 17.6298 90.9672 17.6015C90.9672 17.6015 91.7153 14.9154 92.142 13.5644L93.5 9.32565H96.8029L98.1379 13.5644C98.5867 15.0136 99.2888 17.6015 99.2888 17.6015C99.2994 17.636 99.3401 17.636 99.3578 17.6015C99.3578 17.6015 100.083 14.9844 100.514 13.5644L101.809 9.32565H105.969L101.469 23.3292H97.3783L96.262 19.8098C95.8353 18.4296 95.082 15.7497 95.082 15.7497C95.0705 15.7152 95.0244 15.7152 95.0191 15.7497C95.0191 15.7497 94.2649 18.3774 93.8107 19.7868L92.6705 23.3292ZM50.4123 23.3292H45.8832V9.32565H50.4123V23.3292ZM53.8471 1.92395H58.3761V23.3292H53.8471V1.92395ZM61.7304 1.92395H66.2594V23.3292H61.7304V1.92395ZM79.3906 16.3761C79.3906 14.2943 77.8998 12.8734 76.139 12.8734C74.3384 12.8734 72.8476 14.2943 72.8476 16.3761C72.8476 18.4756 74.3384 19.8779 76.139 19.8779C77.8998 19.8788 79.3906 18.4756 79.3906 16.3761ZM108.225 5.96719C107.292 5.96719 106.533 6.7263 106.533 7.65792C106.533 8.58955 107.292 9.34865 108.225 9.34865C109.157 9.34865 109.916 8.58955 109.916 7.65792C109.916 6.7263 109.157 5.96719 108.225 5.96719ZM108.225 9.0213C107.471 9.0213 106.86 8.41172 106.86 7.65792C106.86 6.90501 107.47 6.29543 108.225 6.29543C108.978 6.29543 109.589 6.90501 109.589 7.65792C109.589 8.41172 108.979 9.0213 108.225 9.0213ZM108.323 6.64579C108.714 6.64579 108.996 6.93332 108.996 7.33057C108.996 7.63492 108.829 7.87114 108.581 7.96847L108.967 8.60105H108.599L108.241 8.01447H107.925V8.60105H107.603V6.64579H108.323ZM108.305 6.93332H107.925V7.72693H108.305C108.519 7.72693 108.673 7.55972 108.673 7.33057C108.673 7.10054 108.519 6.93332 108.305 6.93332ZM48.1451 2.3097C49.5544 2.3097 50.723 3.44835 50.723 4.85154C50.723 6.25473 49.5544 7.39339 48.1451 7.39339C46.7349 7.39339 45.5672 6.25473 45.5672 4.85154C45.5663 3.44835 46.7349 2.3097 48.1451 2.3097Z" fill="#6C757D"/>
<path d="M5.58032 20.9664C5.49411 21.0126 5.4239 21.001 5.35458 20.9317L3.42516 18.634C3.37361 18.57 3.36739 18.5354 3.43671 18.4377C4.92799 16.2554 7.97189 12.8545 9.91287 11.4174C9.94753 11.3943 9.93597 11.365 9.89509 11.3828C7.87324 12.0409 2.12584 14.5119 0 15.7127V23.5173H20.6869V16.0014C17.8679 16.4801 9.42229 18.9919 5.58032 20.9664ZM13.9912 6.92581C14.0952 6.90271 14.1414 6.93735 14.2045 7.00663C14.5627 7.40454 15.7074 8.80167 16.0184 9.18271C16.0762 9.25199 16.0362 9.32749 15.99 9.36745C13.6793 11.1687 11.1082 13.7205 9.67558 15.5448C9.64714 15.5857 9.67025 15.5857 9.69335 15.5795C12.1889 14.5057 18.0518 12.7906 20.6922 12.3118V8.96954L10.3581 0.799927L0.00622109 8.96332V12.6174C3.21186 10.7131 10.6292 7.76248 13.9912 6.92581Z" fill="#6C757D"/>
</g>
<defs>
<clipPath id="clip0_143_413">
<rect width="110.208" height="23" fill="white" transform="translate(0 0.799927)"/>
</clipPath>
</defs>
</svg>
