<svg width="42" height="19" fill="none" xmlns="http://www.w3.org/2000/svg"><path fill-rule="evenodd" clip-rule="evenodd" d="M7.875 2.905c-.487.587-1.266 1.05-2.045.983-.097-.793.284-1.635.73-2.156C7.048 1.13 7.9.7 8.59.667c.081.826-.235 1.635-.714 2.238zm.706 1.14c-.686-.04-1.313.21-1.818.412-.326.13-.601.24-.811.24-.235 0-.522-.115-.845-.246-.422-.17-.904-.366-1.41-.356-1.161.016-2.24.685-2.832 1.751-1.217 2.131-.317 5.287.86 7.021.576.86 1.265 1.801 2.174 1.768.4-.015.688-.14.985-.268.343-.148.699-.302 1.255-.302.536 0 .876.15 1.203.294.31.136.61.268 1.052.26.941-.017 1.534-.86 2.11-1.719a7.612 7.612 0 00.936-1.958l.005-.016-.022-.01c-.208-.098-1.796-.838-1.812-2.823-.015-1.667 1.26-2.51 1.46-2.644l.025-.016C10.285 4.21 9.02 4.078 8.581 4.045zm6.515 10.483V1.65h4.747c2.45 0 4.162 1.718 4.162 4.229s-1.744 4.246-4.227 4.246H17.06v4.403h-1.964zM17.06 3.335h2.263c1.704 0 2.678.925 2.678 2.552 0 1.628-.974 2.561-2.686 2.561H17.06V3.335zm13.428 9.648c-.519 1.008-1.663 1.644-2.896 1.644-1.826 0-3.1-1.107-3.1-2.776 0-1.652 1.233-2.602 3.513-2.742l2.45-.149v-.71c0-1.05-.673-1.62-1.873-1.62-.99 0-1.713.521-1.859 1.314h-1.768c.056-1.668 1.598-2.883 3.683-2.883 2.248 0 3.708 1.198 3.708 3.057v6.41H30.53v-1.545h-.04zm-2.37.116c-1.046 0-1.711-.513-1.711-1.297 0-.81.64-1.28 1.866-1.355l2.183-.14v.727c0 1.206-1.006 2.065-2.337 2.065zm10.257 1.933c-.787 2.255-1.688 2.998-3.603 2.998-.146 0-.633-.016-.746-.05v-1.544c.121.016.422.033.576.033.868 0 1.355-.372 1.655-1.338l.179-.57-3.327-9.376h2.053l2.312 7.608h.04l2.313-7.608h1.996l-3.448 9.847z" fill="#000"/></svg>