<svg width="24" height="24" fill="none" xmlns="http://www.w3.org/2000/svg"><path fill-rule="evenodd" clip-rule="evenodd" d="M.891 7.09C.297 8.541 0 10.145 0 11.901c0 1.757.286 3.372.86 4.846a11.007 11.007 0 002.482 3.837 11.628 11.628 0 003.82 2.537C8.626 23.707 10.239 24 12 24c1.74 0 3.332-.293 4.774-.878a11.63 11.63 0 003.82-2.537 11.395 11.395 0 002.515-3.837c.594-1.474.891-3.09.891-4.846 0-1.756-.308-3.36-.923-4.813-.07-.167-.143-.331-.218-.493L12.003 17.663 4.533 9.83 5.95 8.326l5.863 3.834L21.7 4.634a11.05 11.05 0 00-1.17-1.35C19.47 2.223 18.207 1.41 16.744.847 15.3.282 13.719 0 12 0c-1.719 0-3.31.282-4.775.846a11.056 11.056 0 00-3.82 2.439C2.325 4.347 1.486 5.615.892 7.089z" fill="#C2E631"/></svg>