<svg width="149" height="21" fill="none" xmlns="http://www.w3.org/2000/svg"><g clip-path="url(#clip0_143_418)" fill="#6C757D"><path d="M32.6 17.585a7.281 7.281 0 01-5.205-12.41 7.274 7.274 0 0112.437 5.13 7.266 7.266 0 01-7.233 7.28zM32.6.3a9.99 9.99 0 00-9.267 6.133 9.997 9.997 0 002.132 10.909 9.987 9.987 0 0017.072-7.048c0-5.5-4.441-9.965-9.938-9.994zm36.902.576a.263.263 0 00-.224.128l-10.242 13.93-10.241-13.93a.263.263 0 00-.228-.128.271.271 0 00-.272.268v18.56h2.71V8.743l7.871 10.633a.207.207 0 00.32 0l7.872-10.633v10.96h2.71V1.144a.274.274 0 00-.276-.267zM86.34 10.23h-6.313V3.594h6.314a3.313 3.313 0 010 6.628v.008zm0-9.362h-9.03v18.828h2.71v-6.74h6.313a6.039 6.039 0 006.038-6.04 6.039 6.039 0 00-6.038-6.04M10.23 17.585A7.28 7.28 0 017.088 3.721a7.274 7.274 0 018.86 2.136l1.946-1.923A9.987 9.987 0 00.208 10.306a9.988 9.988 0 0017.686 6.372l-1.946-1.923a7.192 7.192 0 01-5.718 2.83zM124.49 8.57l-2.074-.471c-2.23-.48-2.398-1.999-2.398-2.474 0-1.54 1.227-2.423 3.365-2.423 2.198 0 3.804 1.491 4.296 1.999l1.906-1.875c-1.79-1.879-3.816-2.798-6.202-2.798-3.632 0-6.074 2.043-6.074 5.085 0 .967 0 3.91 4.883 5.112l2.27.536c2.106.58 3.129 1.599 3.129 3.11 0 1.77-1.706 3.006-4.144 3.006-2.609 0-4.216-1.795-4.695-2.398l-1.882 1.855c1.282 1.463 3.472 3.198 6.605 3.198 3.904 0 6.849-2.439 6.849-5.669 0-2.894-1.998-4.9-5.814-5.8m18.213.007l-2.073-.47c-2.23-.48-2.398-1.999-2.398-2.474 0-1.54 1.227-2.423 3.365-2.423 2.197 0 3.804 1.491 4.291 1.999l1.91-1.875c-1.79-1.879-3.82-2.798-6.201-2.798-3.633 0-6.074 2.043-6.074 5.085 0 .967 0 3.91 4.883 5.112l2.281.524c2.102.58 3.125 1.599 3.125 3.11 0 1.77-1.702 3.006-4.14 3.006-2.609 0-4.219-1.795-4.695-2.398l-1.91 1.874c1.283 1.464 3.473 3.198 6.605 3.198 3.905 0 6.85-2.438 6.85-5.668 0-2.894-1.998-4.9-5.815-5.8m-42.452 3.581l3.1-5.917 3.105 5.917h-6.205zm3.1-11.445a.274.274 0 00-.247.16l-9.874 18.836h3.065l2.525-4.825h9.059l2.529 4.825h3.061L103.623.868a.279.279 0 00-.248-.16z"/><path d="M28.328 12.66l1.914 1.927 6.625-6.664-1.918-1.927-6.621 6.664z"/></g><defs><clipPath id="clip0_143_418"><path fill="#fff" transform="translate(.208 .3)" d="M0 0h148.333v20H0z"/></clipPath></defs></svg>