<svg width="17" height="16" fill="none" xmlns="http://www.w3.org/2000/svg"><g clip-path="url(#clip0_232_11918)" fill="#424551"><path d="M2.008 5.679C3.81 4.175 5.886 3.333 8.08 3.333s4.27.842 6.073 2.346a.667.667 0 00.854-1.024C13.003 2.982 10.634 2 8.08 2s-4.923.982-6.927 2.655a.667.667 0 10.854 1.024z"/><path fill-rule="evenodd" clip-rule="evenodd" d="M2.981 6.46c1.2-1.013 2.91-1.96 4.85-1.96 1.94 0 3.65.947 4.85 1.96.604.51 1.1 1.054 1.45 1.54.174.242.32.48.425.7.096.203.191.459.191.717 0 .257-.095.513-.191.716-.105.22-.25.458-.426.7a8.852 8.852 0 01-1.45 1.541c-1.199 1.012-2.909 1.96-4.85 1.96-1.94 0-3.65-.948-4.849-1.96a8.851 8.851 0 01-1.45-1.54 4.632 4.632 0 01-.425-.701c-.097-.203-.192-.459-.192-.716 0-.258.095-.514.192-.716.105-.221.25-.459.425-.701a8.85 8.85 0 011.45-1.54zm-.729 2.957a.995.995 0 00.058.143c.061.13.161.298.303.494.282.392.702.857 1.228 1.301C4.904 12.253 6.32 13 7.831 13c1.511 0 2.926-.747 3.99-1.645.526-.444.945-.91 1.228-1.3.141-.197.241-.365.303-.495.035-.074.05-.12.057-.143a1.01 1.01 0 00-.057-.144 3.316 3.316 0 00-.303-.494 7.523 7.523 0 00-1.229-1.3 8.291 8.291 0 00-.715-.542 3.42 3.42 0 01-3.274 4.396 3.417 3.417 0 01-3.275-4.396c-.252.17-.491.352-.715.541a7.57 7.57 0 00-1.228 1.301 3.323 3.323 0 00-.303.494.945.945 0 00-.058.144zm3.495-1.5a2.083 2.083 0 114.167 0 2.083 2.083 0 01-4.167 0z"/></g><defs><clipPath id="clip0_232_11918"><path fill="#fff" transform="translate(.247)" d="M0 0h16v16H0z"/></clipPath></defs></svg>