<svg width="24" height="24" fill="none" xmlns="http://www.w3.org/2000/svg"><path d="M18.968 9.562a.822.822 0 00.825-.825V4.475a.822.822 0 00-.825-.825.822.822 0 00-.825.825v4.262c0 .45.375.825.825.825zM13 16.438a.822.822 0 00-.825.825v4.262c0 .458.367.825.825.825a.822.822 0 00.825-.825v-4.262a.827.827 0 00-.825-.826zM7.033 9.562a.822.822 0 00.825-.825V4.475a.822.822 0 00-.825-.825.822.822 0 00-.825.825v4.262c0 .45.366.825.825.825zm1.704 1.76h-3.41a.822.822 0 00-.825.826c0 .458.367.825.825.825h.88v8.552c0 .458.367.825.825.825a.822.822 0 00.825-.825v-8.552h.88a.822.822 0 00.825-.825.827.827 0 00-.825-.825zm11.935 0h-3.41a.822.822 0 00-.825.826c0 .458.367.825.825.825h.88v8.552c0 .458.367.825.826.825a.822.822 0 00.825-.825v-8.552h.88a.822.822 0 00.825-.825.822.822 0 00-.826-.825zm-5.967 1.705h-.88V4.475A.822.822 0 0013 3.65a.822.822 0 00-.825.825v8.552h-.88a.822.822 0 00-.825.825c0 .459.367.825.825.825h3.41a.822.822 0 00.825-.825.822.822 0 00-.825-.825z" fill="#1A1E25"/></svg>