<svg width="111" height="29" fill="none" xmlns="http://www.w3.org/2000/svg"><path d="M0 27.982V.464h9.253c2.131 0 4.051.327 5.76.982 1.71.63 3.172 1.547 4.386 2.752 1.238 1.18 2.18 2.621 2.824 4.324.644 1.678.966 3.578.966 5.7 0 2.123-.322 4.037-.966 5.74-.644 1.677-1.585 3.119-2.824 4.324-1.214 1.18-2.676 2.097-4.385 2.752-1.71.63-3.63.944-5.76.944H0zm6.503-5.936h2.565c.99 0 1.944-.131 2.861-.393a6.253 6.253 0 002.416-1.298c.718-.603 1.288-1.402 1.71-2.398.42-1.022.63-2.267.63-3.734 0-1.468-.21-2.7-.63-3.696-.422-1.022-.992-1.834-1.71-2.437a6.253 6.253 0 00-2.416-1.297A10.359 10.359 0 009.068 6.4H6.503v15.646z" fill="#3A3F43"/><path fill-rule="evenodd" clip-rule="evenodd" d="M30.406 8.592c-.688 1.666-1.033 3.505-1.033 5.519 0 2.013.332 3.865.996 5.556a12.607 12.607 0 002.88 4.4 13.494 13.494 0 004.428 2.908c1.698.671 3.568 1.007 5.61 1.007 2.017 0 3.863-.336 5.535-1.007a13.495 13.495 0 004.43-2.909 13.055 13.055 0 002.915-4.4c.689-1.69 1.033-3.542 1.033-5.555 0-2.014-.357-3.853-1.07-5.519-.08-.191-.165-.38-.253-.565L43.29 20.716l-8.66-8.98 1.64-1.727 6.798 4.397 11.465-8.629a12.702 12.702 0 00-1.355-1.547c-1.23-1.218-2.695-2.15-4.392-2.797-1.673-.646-3.506-.97-5.5-.97-1.992 0-3.838.324-5.535.97a12.834 12.834 0 00-4.429 2.797c-1.255 1.218-2.227 2.672-2.916 4.362z" fill="#C2E631"/><path d="M87.5 1.293v27.153L69.431 12.67v14.482h-6.048V0l17.995 15.774V1.293H87.5zm6.185 26.689V.464H111v5.464H99.73v4.875h10.524v5.424H99.731v6.29H111v5.465H93.685z" fill="#3A3F43"/></svg>