<svg width="20" height="20" fill="none" xmlns="http://www.w3.org/2000/svg"><path d="M7.917 10a3.337 3.337 0 003.333-3.333 3.337 3.337 0 00-3.333-3.334 3.337 3.337 0 00-3.334 3.334A3.337 3.337 0 007.917 10zm1.25.833h-2.5c-2.758 0-5 2.243-5 5v.834h12.5v-.834c0-2.757-2.243-5-5-5z" fill="#fff"/><path d="M13.837 9.207a4.725 4.725 0 00.626-2.867c-.15-1.487-.98-2.8-2.336-3.7l-.921 1.388c.932.619 1.5 1.5 1.598 2.479a3.077 3.077 0 01-.893 2.488l-.993.993 1.348.396c3.527 1.033 3.567 4.58 3.567 4.616H17.5c0-1.49-.797-4.404-3.663-5.793z" fill="#fff"/></svg>