<svg width="140" height="27" fill="none" xmlns="http://www.w3.org/2000/svg"><g clip-path="url(#clip0_143_429)" fill="#6C757D"><path fill-rule="evenodd" clip-rule="evenodd" d="M16.58 5.182l-6.24 6.863L.543 7.094v2.97l1.317.691V21.05l10.377 5.25 10.4-5.227v-9.925l1.317.644V8.89l-7.372-3.708zm4.138 13.979l-8.459 4.191-7.811-3.869v-7.53l6.494 3.27 6.263-6.84 3.49 1.773.023 9.005z"/><path fill-rule="evenodd" clip-rule="evenodd" d="M5.048 5.274V2.211L6.782.3l2.75 1.382v2.671L7.567 6.541 5.048 5.274zm10.654 16.558V16.95l2.589-1.29v4.883l-2.589 1.29zm81.537-1.612a1.364 1.364 0 01-2.728 0c0-.76.624-1.358 1.364-1.358.763 0 1.364.598 1.364 1.358z"/><path d="M27.951 6.034h2.681v6.057h6.957V6.034h2.68V21.28h-2.68v-6.862h-6.957v6.862h-2.68V6.034zm13.636 9.718c0-3.362 2.034-5.803 5.593-5.803s5.593 2.441 5.593 5.803c0 3.386-2.034 5.827-5.593 5.827-3.56 0-5.593-2.441-5.593-5.827zm8.736 0c0-1.888-.97-3.892-3.143-3.892-2.196 0-3.143 1.981-3.143 3.893 0 1.91.97 3.914 3.143 3.914 2.172-.023 3.143-2.003 3.143-3.915zm3.837-5.504h2.31v1.543h.07c.74-1.082 1.64-1.842 3.397-1.842 1.34 0 2.612.576 3.097 1.842.81-1.128 1.872-1.842 3.467-1.842 2.334 0 3.698 1.013 3.698 3.708v7.622h-2.45v-6.448c0-1.75-.116-2.97-2.01-2.97-1.642 0-2.358 1.082-2.358 2.947v6.471h-2.45v-7.092c0-1.52-.462-2.326-1.941-2.326-1.271 0-2.427 1.013-2.427 2.855v6.54h-2.45V10.248h.047zm19.898 6.149c0 1.728.948 3.27 2.982 3.27 1.41 0 2.264-.621 2.704-1.842h2.31c-.53 2.418-2.588 3.754-5.014 3.754-3.467 0-5.408-2.418-5.408-5.804 0-3.132 2.056-5.826 5.361-5.826 3.49 0 5.64 3.132 5.224 6.448h-8.159zm5.686-1.612c-.093-1.543-1.133-2.925-2.774-2.925-1.687 0-2.842 1.29-2.912 2.925h5.686zm5.5 2.948c.139 1.405 1.202 1.912 2.496 1.912.925 0 2.52-.185 2.473-1.451-.07-1.29-1.849-1.428-3.628-1.843-1.803-.391-3.56-1.013-3.56-3.27 0-2.418 2.612-3.155 4.623-3.155 2.265 0 4.322.944 4.622 3.385h-2.542c-.208-1.151-1.179-1.473-2.242-1.473-.716 0-2.01.16-2.01 1.128 0 1.198 1.802 1.359 3.605 1.773 1.78.415 3.582 1.037 3.582 3.224 0 2.626-2.658 3.593-4.946 3.593-2.773 0-4.853-1.244-4.9-3.846h2.427v.023zm21.748-4.007c-.37-1.635-1.364-2.649-3.12-2.649-2.589 0-3.883 2.35-3.883 4.698 0 2.35 1.294 4.699 3.883 4.699 1.664 0 3.051-1.313 3.212-3.133h1.341c-.37 2.649-2.103 4.261-4.553 4.261-3.374 0-5.223-2.671-5.223-5.827 0-3.155 1.849-5.826 5.223-5.826 2.357 0 4.183 1.267 4.484 3.777h-1.364zm12.572 2.049c0 3.156-1.848 5.827-5.223 5.827-3.374 0-5.223-2.671-5.223-5.827 0-3.155 1.849-5.826 5.223-5.826 3.375 0 5.223 2.671 5.223 5.826zm-9.105 0c0 2.35 1.294 4.699 3.882 4.699 2.589 0 3.883-2.35 3.883-4.699 0-2.348-1.294-4.697-3.883-4.697-2.611 0-3.882 2.349-3.882 4.697zm10.468-5.504h1.248v1.866h.07c.716-1.313 1.872-2.188 3.628-2.188 1.456 0 2.774.714 3.167 2.165.67-1.451 2.056-2.165 3.512-2.165 2.427 0 3.652 1.267 3.652 3.869v7.461h-1.34v-7.415c0-1.82-.694-2.787-2.612-2.787-2.334 0-3.004 1.912-3.004 3.962v6.24h-1.341v-7.461c.023-1.497-.601-2.74-2.311-2.74-2.334 0-3.282 1.75-3.305 4.053v6.148h-1.34V10.271h-.024zm18.281-.299c0 .737-.601 1.336-1.363 1.336a1.344 1.344 0 01-1.364-1.336c0-.737.601-1.336 1.387-1.336.739 0 1.34.6 1.34 1.336zm-2.38 0c0 .599.439 1.06 1.04 1.06.578 0 1.017-.461 1.017-1.06s-.439-1.06-1.04-1.06c-.578 0-1.017.484-1.017 1.06zm.809.691h-.301V9.327a2.75 2.75 0 01.509-.046c.254 0 .37.046.462.115.092.046.139.162.139.277 0 .161-.116.276-.278.322v.023c.139.046.185.138.231.323.047.207.07.276.093.322h-.324c-.046-.046-.069-.161-.115-.322-.023-.138-.116-.208-.278-.208h-.138v.53zm.023-.737h.139c.161 0 .3-.046.3-.184 0-.115-.092-.207-.277-.207-.07 0-.139 0-.162.023v.368z"/></g><defs><clipPath id="clip0_143_429"><path fill="#fff" transform="translate(.542 .3)" d="M0 0h138.667v26H0z"/></clipPath></defs></svg>