<svg width="57" height="39" fill="none" xmlns="http://www.w3.org/2000/svg"><g filter="url(#filter0_f_411_18064)"><ellipse cx="28.487" cy="25.297" rx="22" ry="8" fill="url(#paint0_radial_411_18064)" fill-opacity=".3"/></g><path d="M45.19 13.433C43.73 6.251 38.12 3.018 33.191 3.018h-.014c-4.913 0-10.537 3.218-11.999 10.4-1.629 8.02 2.77 14.814 6.751 19.089 1.476 1.585 3.37 2.378 5.262 2.378 1.893 0 3.787-.793 5.248-2.378 3.981-4.275 8.38-11.053 6.752-19.074zm-11.999 7.788c-2.422 0-4.385-2.192-4.385-4.897s1.963-4.896 4.385-4.896c2.422 0 4.385 2.191 4.385 4.896s-1.963 4.897-4.385 4.897z" fill="#EC1B1B"/><defs><radialGradient id="paint0_radial_411_18064" cx="0" cy="0" r="1" gradientUnits="userSpaceOnUse" gradientTransform="rotate(20.323 -58.24 88.092) scale(21.8425 14.2303)"><stop stop-color="#526114"/><stop offset="1" stop-color="#DAF278"/></radialGradient><filter id="filter0_f_411_18064" x=".81" y="11.62" width="55.355" height="27.355" filterUnits="userSpaceOnUse" color-interpolation-filters="sRGB"><feFlood flood-opacity="0" result="BackgroundImageFix"/><feBlend in="SourceGraphic" in2="BackgroundImageFix" result="shape"/><feGaussianBlur stdDeviation="2.839" result="effect1_foregroundBlur_411_18064"/></filter></defs></svg>