<svg width="202" height="52" fill="none" xmlns="http://www.w3.org/2000/svg"><path d="M0 50.922V.844h16.84c3.877 0 7.371.596 10.482 1.788 3.111 1.145 5.771 2.814 7.98 5.008 2.255 2.146 3.968 4.77 5.14 7.87 1.172 3.052 1.758 6.51 1.758 10.373 0 3.863-.586 7.345-1.758 10.445-1.172 3.052-2.885 5.675-5.14 7.869-2.209 2.146-4.869 3.815-7.98 5.008-3.11 1.144-6.605 1.717-10.482 1.717H0zm11.835-10.803h4.666c1.804 0 3.54-.238 5.208-.715 1.668-.477 3.133-1.264 4.396-2.361 1.307-1.097 2.344-2.552 3.11-4.364.767-1.86 1.15-4.125 1.15-6.796 0-2.671-.383-4.913-1.15-6.725-.766-1.86-1.803-3.339-3.11-4.435-1.263-1.097-2.728-1.884-4.396-2.361a18.849 18.849 0 00-5.208-.716h-4.666V40.12z" fill="url(#paint0_linear_74_573)"/><path fill-rule="evenodd" clip-rule="evenodd" d="M55.335 15.636c-1.254 3.031-1.88 6.379-1.88 10.043 0 3.664.604 7.035 1.813 10.11 1.208 3.077 2.955 5.746 5.238 8.008 2.284 2.262 4.97 4.026 8.06 5.293 3.09 1.221 6.492 1.832 10.208 1.832 3.672 0 7.03-.611 10.075-1.832 3.09-1.267 5.776-3.031 8.06-5.293 2.283-2.262 4.051-4.931 5.305-8.007 1.254-3.076 1.881-6.447 1.881-10.11 0-3.665-.65-7.013-1.948-10.043a25.914 25.914 0 00-.461-1.03L78.78 37.7 63.02 21.357l2.987-3.141 12.37 8.001 20.864-15.704a23.126 23.126 0 00-2.467-2.816c-2.239-2.216-4.903-3.913-7.992-5.089C85.737 1.432 82.402.844 78.774.844c-3.626 0-6.985.588-10.074 1.764-3.09 1.176-5.776 2.873-8.06 5.09-2.283 2.216-4.052 4.862-5.305 7.938z" fill="url(#paint1_linear_74_573)"/><path d="M159.235 2.353v49.413l-32.882-28.707v26.354h-11.006V0l32.746 28.706V2.353h11.142z" fill="url(#paint2_linear_74_573)"/><path d="M170.49 50.922V.844H202v9.944h-20.509v8.87h19.151v9.873h-19.151v11.447H202v9.944h-31.51z" fill="url(#paint3_linear_74_573)"/><defs><linearGradient id="paint0_linear_74_573" x1="21.1" y1=".844" x2="21.1" y2="50.922" gradientUnits="userSpaceOnUse"><stop stop-color="#FCFCFC" stop-opacity=".78"/><stop offset=".568" stop-color="#FCFCFC" stop-opacity=".46"/><stop offset="1" stop-color="#FCFCFC" stop-opacity="0"/></linearGradient><linearGradient id="paint1_linear_74_573" x1="78.774" y1=".844" x2="78.774" y2="50.922" gradientUnits="userSpaceOnUse"><stop stop-color="#FCFCFC" stop-opacity=".78"/><stop offset=".568" stop-color="#FCFCFC" stop-opacity=".46"/><stop offset="1" stop-color="#FCFCFC" stop-opacity="0"/></linearGradient><linearGradient id="paint2_linear_74_573" x1="137.291" y1="0" x2="137.291" y2="51.766" gradientUnits="userSpaceOnUse"><stop stop-color="#FCFCFC" stop-opacity=".78"/><stop offset=".568" stop-color="#FCFCFC" stop-opacity=".46"/><stop offset="1" stop-color="#FCFCFC" stop-opacity="0"/></linearGradient><linearGradient id="paint3_linear_74_573" x1="186.245" y1=".844" x2="186.245" y2="50.922" gradientUnits="userSpaceOnUse"><stop stop-color="#FCFCFC" stop-opacity=".78"/><stop offset=".568" stop-color="#FCFCFC" stop-opacity=".46"/><stop offset="1" stop-color="#FCFCFC" stop-opacity="0"/></linearGradient></defs></svg>