<svg width="17" height="17" fill="none" xmlns="http://www.w3.org/2000/svg"><path fill-rule="evenodd" clip-rule="evenodd" d="M8.5 1.052c1.262 0 2.34.993 3.067 2.302.113.204.22.42.32.644.318-.16.62-.342.904-.544a.541.541 0 01.627.883c-.36.256-.744.483-1.148.68.278.891.455 1.888.5 2.942h2.636V9.04h-2.635a11.595 11.595 0 01-.502 2.941 8.16 8.16 0 011.149.68.541.541 0 01-.627.884 7.077 7.077 0 00-.904-.545c-.1.226-.207.441-.32.645-.727 1.31-1.805 2.302-3.067 2.302-1.262 0-2.34-.993-3.067-2.302a8.082 8.082 0 01-.32-.645 6.95 6.95 0 00-.904.545.541.541 0 11-.627-.883 8.15 8.15 0 011.149-.68 11.599 11.599 0 01-.502-2.942H1.594V7.96h2.635c.046-1.054.223-2.05.502-2.941a8.155 8.155 0 01-1.149-.68.541.541 0 11.627-.884c.284.202.586.384.904.544.1-.225.207-.44.32-.644.727-1.31 1.805-2.302 3.067-2.302zM6.113 4.413c.084-.187.173-.365.267-.534.489-.88 1.05-1.412 1.579-1.63v2.525a7.551 7.551 0 01-1.846-.36zM9.041 2.25c.529.218 1.09.75 1.58 1.63a7 7 0 01.266.534 7.553 7.553 0 01-1.846.361V2.25zm2.222 3.18c.23.76.38 1.616.424 2.53H9.04v-2.1a8.637 8.637 0 002.222-.43zm.424 3.612a10.54 10.54 0 01-.424 2.53 8.635 8.635 0 00-2.222-.43v-2.1h2.646zm-.8 3.545a7.008 7.008 0 01-.267.534c-.489.881-1.05 1.413-1.579 1.63v-2.525a7.553 7.553 0 011.846.361zm-2.928 2.165c-.529-.218-1.09-.75-1.58-1.63a6.982 6.982 0 01-.266-.535 7.552 7.552 0 011.846-.36v2.525zm-2.222-3.18a10.54 10.54 0 01-.424-2.53H7.96v2.1a8.64 8.64 0 00-2.222.43zM5.313 7.96c.044-.914.195-1.77.424-2.53.7.235 1.447.383 2.222.43v2.1H5.313z" fill="#FDFDFD"/><path fill-rule="evenodd" clip-rule="evenodd" d="M15.948 8.5a7.448 7.448 0 10-14.896 0 7.448 7.448 0 0014.896 0zM8.5 2.135a6.365 6.365 0 110 12.73 6.365 6.365 0 010-12.73z" fill="#FDFDFD"/></svg>