<svg width="11" height="15" fill="none" xmlns="http://www.w3.org/2000/svg"><path d="M5.5 0C2.46 0 0 2.202 0 4.925c0 3.694 5.5 9.147 5.5 9.147S11 8.619 11 4.925C11 2.202 8.54 0 5.5 0zM1.571 4.925c0-1.942 1.76-3.518 3.929-3.518 2.169 0 3.929 1.576 3.929 3.518 0 2.027-2.263 5.06-3.929 6.952C3.866 9.998 1.571 6.93 1.571 4.925z" fill="#C2E631"/><path d="M5.5 6.684c1.085 0 1.965-.788 1.965-1.76 0-.97-.88-1.758-1.965-1.758-1.084 0-1.964.787-1.964 1.759 0 .971.88 1.759 1.964 1.759z" fill="#C2E631"/></svg>