<svg width="38" height="24" fill="none" xmlns="http://www.w3.org/2000/svg"><path fill-rule="evenodd" clip-rule="evenodd" d="M19.326 20.968a11.15 11.15 0 01-7.334 2.749C5.746 23.717.684 18.566.684 12.212.684 5.858 5.746.707 11.992.707a11.15 11.15 0 017.334 2.748A11.15 11.15 0 0126.661.707c6.246 0 11.308 5.15 11.308 11.505 0 6.354-5.062 11.505-11.308 11.505a11.15 11.15 0 01-7.335-2.749z" fill="#ED0006"/><path fill-rule="evenodd" clip-rule="evenodd" d="M19.326 20.968a11.562 11.562 0 003.973-8.756 11.56 11.56 0 00-3.973-8.757A11.15 11.15 0 0126.661.707c6.245 0 11.308 5.15 11.308 11.505 0 6.354-5.063 11.505-11.308 11.505a11.15 11.15 0 01-7.335-2.749z" fill="#F9A000"/><path fill-rule="evenodd" clip-rule="evenodd" d="M19.326 20.968a11.562 11.562 0 003.974-8.756 11.56 11.56 0 00-3.974-8.757 11.562 11.562 0 00-3.973 8.757c0 3.506 1.542 6.646 3.973 8.756z" fill="#FF5E00"/></svg>