<svg width="38" height="38" fill="none" xmlns="http://www.w3.org/2000/svg"><circle cx="19" cy="19" r="19" fill="#C2E631"/><path fill-rule="evenodd" clip-rule="evenodd" d="M14.58 9.667c-.324 0-.647.05-.959.146l-.222.07c-1.355.423-2.362 1.63-2.623 3.11a7.253 7.253 0 00.032 2.674l.026.132a13.368 13.368 0 0010.66 10.425c.83.146 1.683.146 2.513 0 1.48-.261 2.687-1.268 3.11-2.623l.07-.222a3.22 3.22 0 00.146-.96c0-1.54-1.338-2.752-2.95-2.752h-3.265c-1.613 0-2.951 1.213-2.951 2.752 0 .313.045.623.135.924a11.715 11.715 0 01-4.644-4.645c.3.09.61.135.923.135 1.54 0 2.752-1.338 2.752-2.95v-3.265c0-1.613-1.213-2.951-2.752-2.951zm-2.15 5.618c.173.85.741 1.515 1.465 1.741l.223.07c.151.047.306.07.463.07.58 0 1.086-.557 1.086-1.284v-3.264c0-.727-.506-1.285-1.086-1.285a1.55 1.55 0 00-.463.071l-.223.07c-.743.232-1.322.926-1.477 1.808a5.586 5.586 0 00.012 2.003zm9.242 9.275l.116.023a5.59 5.59 0 001.93 0c.881-.156 1.576-.735 1.808-1.478l.07-.223a1.55 1.55 0 00.07-.463c0-.58-.557-1.086-1.284-1.086h-3.265c-.726 0-1.284.506-1.284 1.087 0 .155.024.311.071.462l.07.223c.222.711.869 1.273 1.698 1.455z" fill="#2E2D2D"/></svg>