<svg width="20" height="23" fill="none" xmlns="http://www.w3.org/2000/svg"><path fill-rule="evenodd" clip-rule="evenodd" d="M5.93 21.747l.377-2.415-.839-.02H1.463L4.246 1.49a.236.236 0 01.078-.14.226.226 0 01.149-.054h6.753c2.242 0 3.79.47 4.597 1.4.379.437.62.893.737 1.394.122.527.125 1.156.005 1.923l-.009.056v.491l.38.217c.318.17.572.366.766.59.324.373.533.847.622 1.41.091.577.061 1.265-.089 2.044-.172.896-.452 1.676-.83 2.314a4.739 4.739 0 01-1.313 1.454 5.303 5.303 0 01-1.77.807c-.652.171-1.396.258-2.212.258h-.525A1.585 1.585 0 0010.022 17l-.04.218-.665 4.257-.03.156c-.009.05-.022.074-.042.09a.11.11 0 01-.07.026H5.93" fill="#28356A"/><path fill-rule="evenodd" clip-rule="evenodd" d="M17.293 6.125c-.02.13-.043.263-.069.4-.89 4.617-3.938 6.212-7.83 6.212h-1.98a.965.965 0 00-.952.823L5.161 21.9a.51.51 0 00.5.592h3.514c.416 0 .77-.305.835-.72l.035-.18.662-4.24.042-.233a.848.848 0 01.835-.721h.526c3.405 0 6.07-1.396 6.85-5.436.325-1.688.156-3.097-.705-4.088a3.361 3.361 0 00-.962-.748" fill="#298FC2"/><path fill-rule="evenodd" clip-rule="evenodd" d="M16.362 5.75a6.93 6.93 0 00-.866-.195 10.911 10.911 0 00-1.747-.128H8.456c-.13 0-.254.03-.365.083a.851.851 0 00-.47.638L6.495 13.35l-.032.21a.965.965 0 01.951-.823h1.981c3.892 0 6.94-1.596 7.83-6.213.026-.136.049-.27.069-.4a4.71 4.71 0 00-.932-.375" fill="#22284F"/><path fill-rule="evenodd" clip-rule="evenodd" d="M7.621 6.148a.849.849 0 01.835-.72h5.293c.627 0 1.213.04 1.747.128a6.93 6.93 0 011.066.257c.263.088.507.192.732.312.265-1.707-.002-2.869-.915-3.92C15.37 1.044 13.553.55 11.227.55H4.473a.968.968 0 00-.954.824L.706 19.38a.584.584 0 00.573.677h4.17L7.62 6.147" fill="#28356A"/></svg>