<svg width="137" height="23" fill="none" xmlns="http://www.w3.org/2000/svg"><g clip-path="url(#clip0_143_458)" fill="#6C757D"><path d="M9.748 11.487c-.878 0-1.318-.63-1.582-1.18-.263-.553-.174-1.023-.789-1.023s-2.107 1.651-2.37 3.855c0 .237-.089 1.73-.089 2.518v2.36c0 .865-.086 1.966.088 2.595.175.867.44.945 1.142 1.26.263.078.351.157.526.157v.079H0v-.08c.175 0 .264-.078.526-.156.79-.315.967-.393 1.141-1.26.176-.629.089-1.73.089-2.595V9.835c-.089-.63-.265-.787-.615-1.024-.353-.235-.703-.235-.968-.314v-.079h4.48c.175 0 .175.08.175.158v3.619c.438-1.574 1.317-2.597 1.843-3.069.528-.471 1.407-1.022 2.548-1.022.526 0 1.14.157 1.58.551.264.237.527.707.527 1.337.089.785-.436 1.495-1.578 1.495zm14.139 2.674H14.49c0 3.776.526 5.665 1.58 6.766.79.865 1.58 1.022 2.634 1.022 2.898 0 4.391-2.123 5.007-4.326h.176c-.616 2.752-2.635 4.641-5.709 4.641-1.757 0-3.688-.393-5.006-1.653-1.406-1.415-1.932-3.067-1.932-5.349 0-4.327 2.722-7.159 6.587-7.159 4.39 0 6.323 2.675 6.323 5.192-.177.237-.177.551-.263.866zm-4.216-5.27c-.615-.552-1.141-.709-2.019-.709-.79 0-1.318.157-1.844.709-.79.786-1.229 2.518-1.318 5.034h5.18c1.055 0 1.143 0 1.143-1.416-.09-1.888-.615-3.148-1.142-3.618zM34.6 22.264c-.878 0-1.58 0-1.932-.236-.439-.237-.79-.866-.703-2.046-.35 1.102-1.579 2.282-3.863 2.282-2.108 0-3.952-1.101-3.952-3.383 0-.865.263-1.573.878-2.045 1.14-.943 2.634-1.023 4.126-1.573 2.02-.709 2.987-1.574 2.987-2.518v-2.439c0-1.73-.527-2.045-2.02-2.045-.79 0-1.229.156-1.58.471-.35.315-.527 1.022-.527 1.967 0 1.022-.614 1.416-1.58 1.416-.79 0-1.405-.394-1.405-1.181 0-.55.175-.944.615-1.337.79-.866 2.986-1.416 4.479-1.416 2.635 0 5.181.866 5.181 3.147 0 1.023-.089 6.137-.089 8.025 0 1.416 0 1.888.353 2.203.102.097.224.175.36.23.135.053.281.082.43.085.351 0 .614-.08.966-.237v.08c-.441.235-1.582.55-2.724.55zm-4.917-7.002c-.968.472-1.407.787-1.757 1.26-.352.55-.615 1.415-.615 2.282 0 1.808.79 2.831 2.196 2.831.263 0 .615 0 .877-.156.79-.315 1.493-1.416 1.493-2.439v-5.35c-.438.707-1.23 1.1-2.194 1.572zm7.2 6.687c.176-.078.439-.157.616-.235.614-.237.878-.394 1.053-1.26.175-.63.175-1.652.175-2.596V3.932c0-.55 0-2.044-.087-2.595-.088-.63-.263-.867-.616-1.023-.35-.237-.702-.237-.965-.315h4.477c.175 0 .175 0 .175.237v17.78c0 .865 0 1.888.089 2.595.174.867.439 1.023 1.228 1.26.176.078.264.078.439.157v.079H36.88v-.158h.003zm16.247-1.731c-.527 1.023-2.11 2.046-3.69 2.046-1.404 0-2.282-.157-3.072-.867-.614-.55-.967-1.18-.967-2.359 0-.629.088-8.968.176-10.542-.527 0-1.58 0-2.109-.079V8.34c2.196-.472 3.601-1.496 5.095-5.822h.086V8.26h3.514v.156H48.65l-.174 11.487c0 1.18.351 1.888 1.844 1.888 1.23 0 2.196-.865 2.635-1.651l.175.078zm6.06 2.046c-3.513 0-7.29-2.753-7.29-7.08 0-4.326 3.777-7.08 7.29-7.08 3.514 0 7.377 2.675 7.377 7.08 0 4.327-3.777 7.08-7.377 7.08zm2.37-13.139c-.703-.786-1.58-.944-2.371-.944-.79 0-1.67.236-2.283.866-1.054 1.023-1.669 3.618-1.669 6.058 0 2.518.615 4.955 1.669 6.057.703.786 1.58.945 2.37.945s1.581-.158 2.37-.945c.968-1.022 1.67-3.54 1.67-6.057-.087-2.44-.702-4.877-1.756-5.98zm14.137 2.362c-.876 0-1.316-.63-1.578-1.181-.265-.552-.176-1.022-.792-1.022-.615 0-2.108 1.65-2.37 3.855 0 .237-.087 1.73-.087 2.518v2.36c0 .865-.088 1.966.086 2.595.176.867.44.945 1.143 1.26.264.078.35.157.526.157v.079h-6.587v-.08c.175 0 .265-.078.526-.156.791-.315.967-.393 1.142-1.26.175-.629.088-1.73.088-2.595V9.835c-.088-.63-.264-.787-.615-1.024-.353-.235-.703-.235-.967-.314v-.079h4.479c.176 0 .176.08.176.158v3.619c.437-1.574 1.316-2.597 1.843-3.069.527-.471 1.406-1.022 2.547-1.022.526 0 1.141.157 1.58.55.264.238.528.708.528 1.338.003.785-.525 1.495-1.668 1.495zM77.37 22.5c-1.055 0-1.933-.708-1.933-1.73 0-1.023.878-1.73 1.933-1.73 1.054 0 1.93.628 1.93 1.73-.087 1.022-.876 1.73-1.93 1.73zm10.098-.236c-1.931 0-3.688-.708-4.83-1.73-1.493-1.338-2.02-3.227-2.02-5.508 0-4.327 3.689-6.923 6.939-6.923 2.195 0 3.863.707 4.479 1.416.526.551.79 1.022.79 1.495 0 1.022-.79 1.416-1.494 1.416-1.228 0-1.668-.709-1.757-1.73-.263-1.81-.614-2.44-2.107-2.44-.615 0-1.58.237-2.108.787-.79.866-1.229 2.911-1.229 5.428 0 3.148.44 5.192 1.318 6.372.702.866 1.58 1.101 2.37 1.101 3.25 0 4.656-2.518 5.182-4.406h.174c-.877 2.676-2.722 4.722-5.707 4.722zm12.823 0c-3.514 0-7.29-2.753-7.29-7.08 0-4.326 3.776-7.08 7.29-7.08 3.512 0 7.375 2.675 7.375 7.08 0 4.327-3.864 7.08-7.375 7.08zm2.37-13.139c-.703-.786-1.581-.944-2.37-.944-.79 0-1.67.236-2.284.866-1.055 1.023-1.67 3.618-1.67 6.058 0 2.518.615 4.955 1.67 6.057.703.786 1.58.945 2.371.945.789 0 1.58-.158 2.37-.945.967-1.022 1.669-3.54 1.669-6.057-.175-2.44-.789-4.877-1.756-5.98zm22.569 12.824c.176-.078.264-.157.526-.236.703-.236.967-.393 1.142-1.26.175-.628.175-1.65.175-2.596v-5.586c0-1.495-.175-2.202-.526-2.674-.439-.551-1.054-.866-1.932-.866-1.581 0-3.425 1.259-3.688 3.697 0 .472-.088 1.023-.088 1.653v3.697c0 .866-.088 1.888.088 2.596.174.866.439 1.022 1.141 1.26.264.078.351.156.527.156v.079h-6.675v-.08c.176 0 .264-.077.526-.156.704-.237.967-.393 1.143-1.259.174-.629.174-1.652.174-2.596v-5.585c0-1.496-.174-2.204-.615-2.676-.438-.55-1.053-.865-1.931-.865-1.757 0-3.425 1.337-3.689 3.775-.088.787-.088 1.73-.088 2.676v2.595c0 .867-.087 1.967.088 2.597.175.866.439.944 1.229 1.259l.526.157v.078h-6.674v-.078c.175 0 .264-.079.526-.157.791-.236.967-.393 1.143-1.26.174-.63.174-1.73.174-2.596v-5.506c0-.552 0-2.124-.087-2.597-.087-.63-.264-.787-.615-1.023-.351-.236-.703-.236-.967-.315V8.18h4.479c.174 0 .174 0 .174.157l-.087 3.147c.439-1.415 1.23-2.202 2.02-2.753.615-.393 1.756-.866 2.985-.866 1.58 0 2.722.393 3.337 1.1.352.394.967 1.26.967 2.598.439-1.495 1.318-2.36 2.108-2.833.79-.55 2.019-.866 2.898-.866 1.932 0 2.898.55 3.424 1.18.439.472.878 1.338.878 2.99v5.664c0 .867 0 1.889.176 2.597.175.866.439 1.023 1.141 1.259l.526.157v.077h-6.586v.162h.007zm9.134-11.014c-.352 0-.703-.077-1.054-.157-.351-.156-.616-.313-.79-.47-.265-.237-.439-.472-.527-.71-.175-.313-.175-.55-.175-.943 0-.315.088-.63.175-.944.175-.315.351-.55.527-.786.263-.237.526-.394.878-.473.35-.156.702-.156 1.053-.156.352 0 .704.079 1.054.156.352.158.616.316.791.473.264.236.438.471.526.707.174.316.174.552.174.945 0 .315-.087.629-.174.944-.175.315-.352.551-.526.786-.175.235-.527.393-.878.471-.352.157-.702.157-1.054.157zm0-.236c.352 0 .615-.078.966-.157a1.36 1.36 0 00.702-.47c.176-.158.352-.394.528-.63.087-.237.174-.551.174-.787 0-.315-.087-.55-.174-.786a1.255 1.255 0 00-.528-.63c-.174-.157-.439-.314-.702-.47-.264-.08-.614-.158-.878-.158-.351 0-.614.078-.966.157a1.359 1.359 0 00-.703.47c-.175.158-.351.394-.526.63-.088.237-.175.551-.175.787 0 .314.087.55.175.786.087.236.264.472.526.63.176.157.439.314.703.47.262.08.614.158.878.158zm-1.054-3.462h1.229c.351 0 .703.08.877.237.175.158.265.315.265.55 0 .238-.089.394-.176.473-.087.157-.263.236-.439.314l.703.867h-.703l-.615-.786h-.439v.786h-.614v-2.44h-.088zm1.23 1.18c.176 0 .264 0 .351-.078.088-.078.088-.157.088-.236 0-.156 0-.237-.088-.237-.087-.078-.174-.078-.351-.078h-.615v.708h.615v-.079z"/></g><defs><clipPath id="clip0_143_458"><path fill="#fff" d="M0 0h137v22.5H0z"/></clipPath></defs></svg>