<svg width="92" height="25" fill="none" xmlns="http://www.w3.org/2000/svg"><g clip-path="url(#clip0_143_375)" fill="#6C757D"><path d="M46.105 4.983C44.45 3.87 42.22 3.457 39.25 3.457l-5.616-.002v18.92l5.734.003c2.041 0 3.796-.267 5.263-.866 1.474-.611 2.627-1.582 3.408-2.982.78-1.398 1.19-3.22 1.19-5.538 0-2.003-.248-3.642-.763-4.962-.514-1.322-1.299-2.325-2.36-3.047zm-1.504 11.282c-.277.944-.72 1.664-1.407 2.165-.757.543-1.898.838-3.308.838h-2.01l-.003-12.7 1.687.002c1.661.006 2.891.276 3.719.895.605.46 1.026 1.1 1.301 1.974.276.875.398 1.979.398 3.346 0 1.368-.1 2.534-.377 3.48z"/><path d="M46.105 4.983C44.45 3.87 42.22 3.457 39.25 3.457l-5.616-.002v18.92l5.734.003c2.041 0 3.796-.267 5.263-.866 1.474-.611 2.627-1.582 3.408-2.982.78-1.398 1.19-3.22 1.19-5.538 0-2.003-.248-3.642-.763-4.962-.514-1.322-1.299-2.325-2.36-3.047zm-1.504 11.282c-.277.944-.72 1.664-1.407 2.165-.757.543-1.898.838-3.308.838h-2.01l-.003-12.7 1.687.002c1.661.006 2.891.276 3.719.895.605.46 1.026 1.1 1.301 1.974.276.875.398 1.979.398 3.346 0 1.368-.1 2.534-.377 3.48zm7.289 6.11h4.248v-8.063h4.908v-3.083h-4.908v-4.66l7.583.001V3.455H51.89v18.92zm14.518 0h4.252V3.455h-4.252s-.032 18.92 0 18.92zm22.939-18.92h-4.27v10.857l-7.9-10.857h-3.405v18.92h4.271V11.232l7.816 11.143h3.488V3.455z"/><path d="M51.89 22.375h4.248v-8.063h4.908v-3.083h-4.908v-4.66l7.583.001V3.455H51.89v18.92zm37.457-18.92h-4.27v10.857l-7.9-10.857h-3.405v18.92h4.271V11.232l7.816 11.143h3.488V3.455zM17.591 23.097c-.357-.146-.715-.424-1.676-2.07l-1.914-3.23-2.257-3.808-.192-.323a7.09 7.09 0 00.327-.105c2.59-.904 4.102-3.317 4.102-6.76a5.922 5.922 0 00-1.967-4.45 6.51 6.51 0 00-.59-.46C11.698.734 9.377.303 6.285.303L.438.3H.349C-.031.297-.067.52.082.721c.134.179.287.418.353 1.027v18.997c-.066.774-.22 1.02-.353 1.198-.15.201-.084.431.296.427h4.33v-8.058h1.968l1.383 2.39 1.738 3.007.845 1.461c1.074 1.84 2.014 2.859 3.885 3.076.255.035.527.051.82.054h.29c.673 0 1.33-.275 1.739-.452.055-.02.11-.043.163-.067.49-.221.355-.561.052-.684zM7.46 11.23H4.708V3.456h2.751c1.362 0 2.4.18 3.178.899.287.276.51.611.667 1.015.19.49.287 1.079.287 1.788 0 1.033-.093 4.071-4.132 4.071zm15.7 3.085h4.92v-3.083h-4.92V6.561h7.58V3.457H18.904v18.921h11.837v-3.137H23.16v-4.926zm67.887 6.172c.504 0 .953.369.953.942 0 .575-.45.947-.953.947-.504 0-.952-.372-.952-.947 0-.573.448-.942.952-.942zm0 1.686c.385 0 .7-.313.7-.744 0-.43-.315-.74-.7-.74-.39 0-.7.31-.7.74 0 .431.31.744.7.744zm-.37-1.274h.393c.26 0 .407.083.407.313 0 .194-.122.27-.273.282l.278.462h-.216l-.254-.452h-.128v.452h-.207V20.9zm.207.441h.183c.12 0 .204-.017.204-.146 0-.111-.12-.132-.214-.132h-.173v.278z"/></g><defs><clipPath id="clip0_143_375"><path fill="#fff" transform="translate(0 .3)" d="M0 0h92v24H0z"/></clipPath></defs></svg>