<svg width="12" height="11" fill="none" xmlns="http://www.w3.org/2000/svg"><path fill-rule="evenodd" clip-rule="evenodd" d="M3.724 5.5A2.268 2.268 0 006 7.757 2.267 2.267 0 008.271 5.5a2.268 2.268 0 00-2.27-2.263A2.269 2.269 0 003.723 5.5zm5.623-3.473c.996.77 1.844 1.895 2.453 3.303a.425.425 0 010 .334c-1.218 2.817-3.387 4.503-5.8 4.503h-.005C3.587 10.167 1.419 8.48.2 5.664a.425.425 0 010-.334C1.42 2.513 3.587.833 5.995.833H6c1.207 0 2.35.419 3.347 1.194zM6 6.907c.78 0 1.417-.633 1.417-1.408 0-.78-.637-1.414-1.417-1.414-.068 0-.137.005-.2.017a1.165 1.165 0 01-1.166 1.12h-.028a1.47 1.47 0 00-.029.277c0 .775.638 1.408 1.423 1.408z" fill="#333"/></svg>