<svg width="20" height="18" fill="none" xmlns="http://www.w3.org/2000/svg"><path fill-rule="evenodd" clip-rule="evenodd" d="M1.75.667c.46 0 .833.373.833.833v3.697A8.337 8.337 0 0117.86 6.222a.833.833 0 01-1.572.556A6.67 6.67 0 004.225 5.667H6.75a.833.833 0 010 1.666h-5A.833.833 0 01.917 6.5v-5c0-.46.373-.833.833-.833zm.897 10.047a.833.833 0 011.064.508 6.67 6.67 0 0012.062 1.111h-2.525a.833.833 0 010-1.666h5c.46 0 .834.373.834.833v5a.833.833 0 11-1.667 0v-3.697a8.337 8.337 0 01-15.276-1.025.833.833 0 01.508-1.064z" fill="#3A3F43"/></svg>