<svg width="86" height="22" fill="none" xmlns="http://www.w3.org/2000/svg"><g clip-path="url(#clip0_143_446)" fill="#6C757D"><path d="M66.686.8c1.238 0 2.241.909 2.241 2.029 0 1.12-1.003 2.029-2.24 2.029-1.238 0-2.241-.909-2.241-2.029 0-1.12 1.003-2.029 2.24-2.029zM22.693 21.331c-3.262 0-4.877-1.687-4.877-4.5V9.406h-2.952V6.51h2.952V2.797l3.883-.872V6.51h4.07v2.896h-4.07v7.116c0 1.125.56 1.603 1.802 1.603.807 0 1.46-.028 2.516-.14v2.953a14.48 14.48 0 01-3.324.393zm13.872-11.7c-2.734 0-4.163 1.772-4.163 4.135v7.368h-3.914V6.51h3.293l.341 2.193c.746-1.687 2.672-2.39 4.567-2.39.404 0 .808.028 1.211.084v3.375c-.435-.084-.9-.14-1.335-.14zm13.953 11.503l-.28-1.912c-.776 1.434-2.578 2.278-4.628 2.278-3.449 0-5.592-2.11-5.592-5.231v-9.76H43.9v8.972c0 1.716.746 2.785 2.796 2.785.901 0 1.522-.31 1.988-.732.932-.787 1.18-2.109 1.18-3.29V6.51h3.884v14.624h-3.23zm10.185.169c-2.641 0-4.412-1.153-4.412-3.937V.8h3.915v15.975c0 .844.217 1.406 1.553 1.406.342 0 .435-.028.652-.028v2.953c-.776.14-.931.197-1.708.197zm4.011-.169V6.51h3.945v14.624h-3.945zm16.098-6.497l-4.1.282c-1.181.084-2.33.73-2.33 1.912 0 1.125 1.087 1.828 2.298 1.828 2.423 0 4.132-1.181 4.132-3.346v-.676zm3.262 6.723c-1.677 0-2.61-.957-2.734-2.054-.745 1.182-2.61 2.194-4.908 2.194-3.853 0-5.84-2.194-5.84-4.584 0-2.784 2.392-4.388 5.467-4.585l4.753-.31v-.899c0-1.378-.528-2.306-2.734-2.306-1.801 0-2.858.73-2.951 2.08h-3.759c.218-3.29 3.107-4.752 6.71-4.752 2.765 0 5.126.788 6.058 2.981.404.928.466 1.969.466 2.953v5.428c0 .675.248.928.9.928.25 0 .498-.056.498-.056v2.588c-.652.253-.994.393-1.926.393zM5.887 9.146c-1.483 0-2.684-1.087-2.684-2.43 0-1.342 1.201-2.43 2.684-2.43 1.482 0 2.684 1.088 2.684 2.43 0 1.343-1.202 2.43-2.684 2.43zM5.868.8C2.302.818 0 2.985 0 6.261c0 2.712 1.954 5.031 3.068 8.557.638 2.02.98 4.491 1.16 6.316h3.28c.18-1.825.523-4.296 1.16-6.316 1.114-3.526 3.068-5.845 3.068-8.557C11.736 2.985 9.434.818 5.868.8z"/></g><defs><clipPath id="clip0_143_446"><path fill="#fff" transform="translate(0 .8)" d="M0 0h86v20.7H0z"/></clipPath></defs></svg>