<svg width="42" height="14" fill="none" xmlns="http://www.w3.org/2000/svg"><path fill-rule="evenodd" clip-rule="evenodd" d="M10.607 13.097H7.095L4.459 2.987c-.125-.465-.39-.876-.781-1.07A11.392 11.392 0 00.457.847V.458h5.66c.781 0 1.367.585 1.465 1.264l1.367 7.292L12.461.458h3.416l-5.27 12.639zm7.223 0h-3.318L17.244.458h3.319L17.83 13.097zm7.026-9.138c.097-.68.683-1.07 1.367-1.07 1.074-.097 2.244.098 3.22.584L30.03.75a8.358 8.358 0 00-3.025-.584c-3.22 0-5.564 1.75-5.564 4.18 0 1.848 1.66 2.819 2.832 3.404 1.267.583 1.756.972 1.658 1.555 0 .874-.977 1.264-1.951 1.264-1.172 0-2.344-.292-3.416-.779l-.586 2.723c1.171.485 2.44.68 3.611.68 3.611.097 5.856-1.652 5.856-4.277 0-3.306-4.588-3.5-4.588-4.958zm16.201 9.138L38.422.458h-2.83c-.586 0-1.172.39-1.367.972l-4.88 11.667h3.417l.682-1.847h4.197l.39 1.847h3.026zM36.08 3.862l.975 4.763h-2.732l1.757-4.763z" fill="#172B85"/></svg>