<svg width="111" height="24" fill="none" xmlns="http://www.w3.org/2000/svg"><g clip-path="url(#clip0_143_413)" fill="#6C757D"><path d="M68.504 16.376c0-4.256 3.434-7.407 7.635-7.407 4.16 0 7.596 3.152 7.596 7.407 0 4.267-3.435 7.424-7.596 7.424-4.2-.005-7.635-3.157-7.635-7.424zM42.569 3.908v.863c0 .322-.07.42-.132.552L34.306 19.16c-.017.023-.006.057.029.057h8.66v4.118H27.4v-.806c0-.356.046-.43.241-.787l8.04-13.647c.016-.028.005-.058-.03-.058h-8.004V3.908h14.92zM92.67 23.33h-4.166L83.976 9.326h4.477l1.295 4.238a194.144 194.144 0 011.156 4.038c.012.034.058.028.063 0 0 0 .748-2.687 1.175-4.038L93.5 9.326h3.303l1.335 4.238c.449 1.45 1.15 4.038 1.15 4.038.011.034.052.034.07 0 0 0 .725-2.618 1.156-4.038l1.295-4.238h4.16l-4.5 14.003h-4.09l-1.117-3.52c-.427-1.38-1.18-4.06-1.18-4.06-.011-.034-.058-.034-.063 0 0 0-.754 2.628-1.208 4.038l-1.14 3.542zm-42.259 0h-4.529V9.326h4.53v14.003zm3.435-21.405h4.53V23.33h-4.53V1.924zm7.883 0h4.53V23.33h-4.53V1.924zm17.66 14.452c0-2.082-1.49-3.503-3.251-3.503-1.8 0-3.291 1.421-3.291 3.503 0 2.1 1.49 3.502 3.291 3.502 1.76 0 3.252-1.402 3.252-3.502zm28.835-10.409c-.933 0-1.692.76-1.692 1.69 0 .933.759 1.692 1.692 1.692.932 0 1.691-.76 1.691-1.691 0-.932-.759-1.69-1.691-1.69zm0 3.054a1.364 1.364 0 11-.003-2.727 1.364 1.364 0 01.003 2.727zm.098-2.375c.391 0 .673.287.673.685a.66.66 0 01-.415.637l.386.633h-.368l-.358-.587h-.316v.587h-.322V6.646h.72zm-.018.287h-.38v.794h.38c.214 0 .368-.167.368-.396 0-.23-.154-.398-.368-.398zM48.145 2.31c1.41 0 2.578 1.138 2.578 2.542 0 1.403-1.169 2.541-2.578 2.541-1.41 0-2.578-1.138-2.578-2.541 0-1.404 1.168-2.542 2.578-2.542zM5.58 20.966c-.086.047-.156.035-.225-.034l-1.93-2.298c-.051-.064-.058-.099.012-.196 1.491-2.183 4.535-5.583 6.476-7.02.035-.024.023-.053-.018-.035-2.022.658-7.77 3.129-9.895 4.33v7.804h20.687v-7.516c-2.82.48-11.265 2.99-15.107 4.965zm8.411-14.04c.104-.023.15.011.213.08.359.399 1.503 1.796 1.814 2.177.058.069.018.144-.028.184-2.31 1.802-4.882 4.353-6.314 6.178-.029.04-.006.04.017.034 2.496-1.073 8.359-2.788 11-3.267V8.97L10.357.8.006 8.963v3.654c3.206-1.904 10.623-4.855 13.985-5.691z"/></g><defs><clipPath id="clip0_143_413"><path fill="#fff" transform="translate(0 .8)" d="M0 0h110.208v23H0z"/></clipPath></defs></svg>